#N canvas 1966 695 813 120 10;
#X obj 31 26 inlet;
#X obj 121 26 inlet;
#X obj 211 26 inlet;
#X obj 301 26 inlet;
#X obj 31 78 outlet;
#X obj 84 43 + 0;
#X obj 174 43 + 1;
#X obj 264 43 + 2;
#X obj 354 43 + 3;
#X obj 31 61 pack 0 0;
#X obj 121 61 pack 0 0;
#X obj 211 61 pack 0 0;
#X obj 301 61 pack 0 0;
#X obj 391 26 inlet;
#X obj 481 26 inlet;
#X obj 571 26 inlet;
#X obj 661 26 inlet;
#X obj 752 26 inlet;
#X obj 391 61 pack 0 0;
#X obj 481 61 pack 0 0;
#X obj 571 61 pack 0 0;
#X obj 661 61 pack 0 0;
#X obj 444 43 + 4;
#X obj 534 43 + 5;
#X obj 624 43 + 6;
#X obj 714 43 + 7;
#X connect 0 0 9 0;
#X connect 1 0 10 0;
#X connect 2 0 11 0;
#X connect 3 0 12 0;
#X connect 5 0 9 1;
#X connect 6 0 10 1;
#X connect 7 0 11 1;
#X connect 8 0 12 1;
#X connect 9 0 4 0;
#X connect 10 0 4 0;
#X connect 11 0 4 0;
#X connect 12 0 4 0;
#X connect 13 0 18 0;
#X connect 14 0 19 0;
#X connect 15 0 20 0;
#X connect 16 0 21 0;
#X connect 17 0 8 0;
#X connect 17 0 7 0;
#X connect 17 0 6 0;
#X connect 17 0 5 0;
#X connect 17 0 22 0;
#X connect 17 0 23 0;
#X connect 17 0 24 0;
#X connect 17 0 25 0;
#X connect 18 0 4 0;
#X connect 19 0 4 0;
#X connect 20 0 4 0;
#X connect 21 0 4 0;
#X connect 22 0 18 1;
#X connect 23 0 19 1;
#X connect 24 0 20 1;
#X connect 25 0 21 1;
