#N canvas 2109 232 960 681 10;
#X obj 47 119 i;
#X obj 46 81 tgl 15 0 empty empty empty 17 7 0 10 -262144 -1 -1 1 1
;
#X obj 72 119 + 1;
#X obj 66 159 sel 0 1 2 3 4 5 6 7 8 9 10 11 12 13 14 15, f 46;
#X obj 66 179 bng 15 250 50 0 empty empty empty 17 7 0 10 -262144 -1
-1;
#X obj 86 179 bng 15 250 50 0 empty empty empty 17 7 0 10 -262144 -1
-1;
#X obj 106 179 bng 15 250 50 0 empty empty empty 17 7 0 10 -262144
-1 -1;
#X obj 126 179 bng 15 250 50 0 empty empty empty 17 7 0 10 -262144
-1 -1;
#X obj 146 179 bng 15 250 50 0 empty empty empty 17 7 0 10 -262144
-1 -1;
#X obj 166 179 bng 15 250 50 0 empty empty empty 17 7 0 10 -262144
-1 -1;
#X obj 186 179 bng 15 250 50 0 empty empty empty 17 7 0 10 -262144
-1 -1;
#X obj 206 179 bng 15 250 50 0 empty empty empty 17 7 0 10 -262144
-1 -1;
#X obj 226 179 bng 15 250 50 0 empty empty empty 17 7 0 10 -262144
-1 -1;
#X obj 246 179 bng 15 250 50 0 empty empty empty 17 7 0 10 -262144
-1 -1;
#X obj 266 179 bng 15 250 50 0 empty empty empty 17 7 0 10 -262144
-1 -1;
#X obj 286 179 bng 15 250 50 0 empty empty empty 17 7 0 10 -262144
-1 -1;
#X obj 306 179 bng 15 250 50 0 empty empty empty 17 7 0 10 -262144
-1 -1;
#X obj 326 179 bng 15 250 50 0 empty empty empty 17 7 0 10 -262144
-1 -1;
#X obj 346 179 bng 15 250 50 0 empty empty empty 17 7 0 10 -262144
-1 -1;
#X obj 47 139 % 16;
#X obj 366 179 bng 15 250 50 0 empty empty empty 17 7 0 10 -262144
-1 -1;
#X floatatom 111 125 5 1 16 0 - - -, f 5;
#X floatatom 106 59 5 0 0 0 - - -, f 5;
#X obj 101 455 vsl 15 30 0 127 0 1 empty empty empty 0 -9 0 10 -262144
-1 -1 2900 1;
#X obj 47 372 nbx 4 14 -1e+37 1e+37 0 0 empty empty empty 0 -8 0 10
-262144 -1 -1 0 256;
#X obj 106 77 expr 60000 / $f1;
#X obj 44 38 key;
#X obj 45 59 sel 32;
#X floatatom 1072 2388 5 0 127 0 - - -, f 5;
#X text 1114 2386 currentProgram;
#X msg 1072 2406 send ProgramChange 0 0 \$1;
#X obj 1073 2354 hradio 15 1 0 8 empty empty empty 0 -8 0 10 -262144
-1 -1 0;
#X obj 73 1284 vsl 15 128 0 127 0 0 empty empty empty 0 -9 0 10 -262144
-1 -1 0 1;
#X obj 91 1284 vsl 15 128 0 127 0 0 empty empty empty 0 -9 0 10 -262144
-1 -1 1800 1;
#X obj 110 1284 vsl 15 128 0 127 0 0 empty empty empty 0 -9 0 10 -262144
-1 -1 0 1;
#X obj 128 1284 vsl 15 128 0 127 0 0 empty empty empty 0 -9 0 10 -262144
-1 -1 0 1;
#X text 73 1261 a;
#X text 91 1261 d;
#X text 110 1261 s;
#X text 128 1261 r;
#X obj 73 1444 s output;
#X obj 116 1953 s output;
#X obj 586 2452 s output;
#X text 195 1884 Attack Ratio;
#X obj 616 1953 s output;
#X obj 619 1909 hsl 128 15 0 127 0 0 empty empty empty -2 -8 0 10 -262144
-1 -1 0 1;
#X text 715 1880 Decay/Release Ratio;
#X obj 116 1885 r envARate;
#X obj 616 1884 r envDRRate;
#X obj 83 1980 cnv 15 800 20 empty empty empty 20 12 0 14 -233017 -66577
0;
#X obj 119 1909 hsl 128 15 0 127 0 0 empty empty empty -2 -8 0 10 -262144
-1 -1 0 1;
#X obj 589 2410 hsl 128 15 0 127 0 0 empty empty empty -2 -8 0 10 -262144
-1 -1 0 1;
#X text 653 2451 osc2 volume;
#X obj 586 2386 r o2v;
#X obj 586 2542 s output;
#X obj 589 2500 hsl 128 15 0 127 0 0 empty empty empty -2 -8 0 10 -262144
-1 -1 0 1;
#X obj 586 2476 r o2d;
#X text 653 2541 osc2 detune;
#X obj 461 2398 vsl 15 128 0 127 0 0 empty empty empty 0 -9 0 10 -262144
-1 -1 0 1;
#X obj 483 2398 vsl 15 128 0 127 0 0 empty empty empty 0 -9 0 10 -262144
-1 -1 0 1;
#X obj 505 2398 vsl 15 128 0 127 0 0 empty empty empty 0 -9 0 10 -262144
-1 -1 0 1;
#X obj 528 2398 vsl 15 128 0 127 0 0 empty empty empty 0 -9 0 10 -262144
-1 -1 0 1;
#N canvas 403 525 450 300 (subpatch) 0;
#X obj 41 62 inlet;
#X obj 111 62 inlet;
#X obj 181 62 inlet;
#X obj 251 62 inlet;
#X obj 41 182 outlet;
#X obj 41 95 pack 0 26;
#X obj 111 95 pack 0 27;
#X obj 181 95 pack 0 28;
#X obj 251 95 pack 0 29;
#X msg 41 139 \$2 \$1;
#X connect 0 0 5 0;
#X connect 1 0 6 0;
#X connect 2 0 7 0;
#X connect 3 0 8 0;
#X connect 5 0 9 0;
#X connect 6 0 9 0;
#X connect 7 0 9 0;
#X connect 8 0 9 0;
#X connect 9 0 4 0;
#X restore 461 2539 pd;
#X obj 461 2564 s output;
#X text 445 2373 sin;
#X text 476 2372 saw;
#X text 505 2372 sqr;
#X text 537 2372 rnd;
#X obj 473 2351 r o2sw;
#X obj 148 2399 vsl 15 128 0 127 0 0 empty empty empty 0 -9 0 10 -262144
-1 -1 0 1;
#X obj 170 2399 vsl 15 128 0 127 0 0 empty empty empty 0 -9 0 10 -262144
-1 -1 0 1;
#X obj 192 2399 vsl 15 128 0 127 0 0 empty empty empty 0 -9 0 10 -262144
-1 -1 0 1;
#X obj 215 2399 vsl 15 128 0 127 0 0 empty empty empty 0 -9 0 10 -262144
-1 -1 0 1;
#N canvas 2289 457 450 300 (subpatch) 0;
#X obj 41 62 inlet;
#X obj 111 62 inlet;
#X obj 181 62 inlet;
#X obj 251 62 inlet;
#X obj 41 182 outlet;
#X obj 41 95 pack 0 16;
#X obj 111 95 pack 0 17;
#X obj 181 95 pack 0 18;
#X obj 251 94 pack 0 19;
#X msg 41 139 \$2 \$1;
#X connect 0 0 5 0;
#X connect 1 0 6 0;
#X connect 2 0 7 0;
#X connect 3 0 8 0;
#X connect 5 0 9 0;
#X connect 6 0 9 0;
#X connect 7 0 9 0;
#X connect 8 0 9 0;
#X connect 9 0 4 0;
#X restore 148 2540 pd;
#X obj 148 2565 s output;
#X text 132 2374 sin;
#X text 163 2373 saw;
#X text 192 2373 sqr;
#X text 224 2373 rnd;
#X obj 107 2353 r o1si;
#X obj 211 2353 r o1sq;
#X obj 264 2354 r o1rn;
#X obj 420 2352 r o2si;
#X obj 524 2352 r o2sq;
#X obj 578 2351 r o2rn;
#X obj 160 2352 r o1sw;
#X msg 586 2431 send ControlChange 0 0 24 \$1;
#X msg 586 2521 send ControlChange 0 0 25 \$1;
#X text 171 2327 OSC 1;
#X text 419 2328 OSC 2;
#X obj 55 1526 vradio 15 1 0 4 empty empty empty 0 -8 0 10 -262144
-1 -1 2;
#X text 75 1526 sin;
#X text 75 1540 saw;
#X text 75 1555 sq;
#X text 75 1570 rnd;
#X obj 55 1593 * 32;
#X obj 618 2096 s output;
#X obj 621 2052 hsl 128 15 0 127 0 0 empty empty empty -2 -8 0 10 -262144
-1 -1 0 1;
#X text 687 2027 pitch glide amt;
#X obj 619 2029 r pGlide;
#X obj 141 2091 s output;
#X obj 144 2047 hsl 128 15 0 127 0 0 empty empty empty -2 -8 0 10 -262144
-1 -1 0 1;
#X text 210 2022 pitch amt;
#X obj 142 2024 r pAmt;
#X obj 1017 2017 tgl 15 0 empty empty empty 17 7 0 10 -262144 -1 -1
0 1;
#X obj 1017 2039 sel 0 1;
#X obj 1021 2120 s output;
#X obj 1107 2017 tgl 15 0 empty empty empty 17 7 0 10 -262144 -1 -1
0 1;
#X obj 1107 2039 sel 0 1;
#X obj 83 2270 cnv 15 800 20 empty empty empty 20 12 0 14 -233017 -66577
0;
#X text 1012 1912 global lfo sync;
#X obj 1018 2065 1;
#X obj 1058 2065 17;
#X obj 1108 2065 33;
#X obj 1148 2065 49;
#X obj 884 2497 s output;
#X obj 848 2544 s output;
#X obj 848 2453 i;
#X obj 886 2452 i;
#X obj 948 2425 bng 15 250 50 0 empty empty empty 17 7 0 10 -262144
-1 -1;
#X obj 839 2396 bng 15 250 50 0 empty empty empty 17 7 0 10 -262144
-1 -1;
#X floatatom 866 2431 5 0 0 0 - - -, f 5;
#X obj 838 2354 r preseLoad;
#X obj 867 2380 r presetNumber;
#X obj 948 2402 r preseSave;
#X obj 146 2193 hsl 100 15 0 127 0 0 empty empty empty -2 -8 0 10 -262144
-1 -1 0 1;
#X obj 142 2215 s pAmt;
#X text 188 2171 Pitch Amt;
#X obj 143 2150 bendin;
#X obj 142 2171 / 128;
#X obj 1018 1987 r l1sync;
#X obj 1108 1987 r l1sync;
#X obj 47 529 noteout;
#X obj 453 133 noteout;
#X msg 463 95 50 0;
#X obj 532 135 noteout;
#X msg 542 97 60 0;
#X obj 609 129 noteout;
#X floatatom 706 115 0 0 0 0 - - -;
#X floatatom 773 115 0 0 0 0 - - -;
#X obj 706 142 ctlout;
#X obj 706 92 unpack 0 0;
#X obj 706 68 r output;
#X obj 46 99 metro 180;
#X msg 116 1932 13 \$1;
#X msg 616 1932 14 \$1;
#X msg 141 2070 67 \$1;
#X msg 618 2075 66 \$1;
#X msg 1020 2090 56 \$1;
#X msg 885 2476 126 \$1;
#X msg 847 2521 125 \$1;
#X obj 424 50 bng 15 250 50 0 empty empty empty 17 7 0 10 -262144 -1
-1;
#X obj 421 75 bng 15 250 50 0 empty empty empty 17 7 0 10 -262144 -1
-1;
#X obj 408 1889 r output;
#X obj 408 1919 print;
#X msg 619 91 40 0;
#X obj 47 494 makenote 60 20 20;
#X obj 167 455 vsl 15 30 50 500 0 1 empty empty empty 0 -9 0 10 -262144
-1 -1 100 1;
#X obj 47 426 +;
#X obj 102 412 nbx 4 14 -1e+37 1e+37 0 0 empty empty empty 0 -8 0 10
-262144 -1 -1 36 256;
#X obj 73 1421 four_params;
#X obj 147 1398 + 0;
#X obj 820 113 s ADSR_OFFSET;
#X obj 147 1377 r ADSR_OFFSET;
#X obj 403 905 s output;
#X obj 403 882 eight_params, f 26;
#X obj 403 702 hradio 15 1 0 5 empty empty empty 0 -8 0 10 -262144
-1 -1 1;
#X obj 428 742 hsl 128 15 0 127 0 0 empty empty empty -2 -8 0 10 -262144
-1 -1 0 1;
#X obj 428 762 hsl 128 15 0 127 0 0 empty empty empty -2 -8 0 10 -262144
-1 -1 0 1;
#X obj 428 802 hsl 128 15 0 127 0 0 empty empty empty -2 -8 0 10 -262144
-1 -1 0 1;
#X obj 428 822 hsl 128 15 0 127 0 0 empty empty empty -2 -8 0 10 -262144
-1 -1 0 1;
#X obj 428 842 hsl 128 15 0 127 0 0 empty empty empty -2 -8 0 10 -262144
-1 -1 0 1;
#X obj 428 782 hsl 128 15 0 127 0 0 empty empty empty -2 -8 0 10 -262144
-1 -1 0 1;
#X text 566 760 adsr 1 amount;
#X text 566 740 adsr 0 amount;
#X text 566 780 adsr 2 amount;
#X text 573 800 lfo 0 amount;
#X text 573 822 lfo 1 amount;
#X text 573 840 lfo 2 amount;
#X text 616 700 octave;
#X obj 403 721 * 26;
#X obj 402 1223 s output;
#X obj 402 1200 eight_params, f 26;
#X obj 407 1031 hsl 128 15 0 127 0 0 empty empty empty -2 -8 0 10 -262144
-1 -1 0 1;
#X obj 407 1051 hsl 128 15 0 127 0 0 empty empty empty -2 -8 0 10 -262144
-1 -1 0 1;
#X obj 407 1091 hsl 128 15 0 127 0 0 empty empty empty -2 -8 0 10 -262144
-1 -1 0 1;
#X obj 407 1111 hsl 128 15 0 127 0 0 empty empty empty -2 -8 0 10 -262144
-1 -1 0 1;
#X obj 407 1131 hsl 128 15 0 127 0 0 empty empty empty -2 -8 0 10 -262144
-1 -1 0 1;
#X obj 407 1071 hsl 128 15 0 127 0 0 empty empty empty -2 -8 0 10 -262144
-1 -1 0 1;
#X text 545 1049 adsr 1 amount;
#X text 545 1029 adsr 0 amount;
#X text 545 1069 adsr 2 amount;
#X text 552 1089 lfo 0 amount;
#X text 552 1111 lfo 1 amount;
#X text 552 1129 lfo 2 amount;
#X obj 291 1133 r FLT_OFFSET;
#X obj 820 161 16;
#X obj 820 230 32;
#X obj 820 209 loadbang;
#X obj 820 140 loadbang;
#X obj 820 71 loadbang;
#X obj 820 92 0;
#X obj 820 251 s FLT_OFFSET;
#X obj 102 392 36;
#X obj 102 372 loadbang;
#X obj 66 203 vsl 15 128 0 12 0 0 empty empty empty 0 -9 0 10 -262144
-1 -1 0 1;
#X obj 86 203 vsl 15 128 0 12 0 0 empty empty empty 0 -9 0 10 -262144
-1 -1 1200 1;
#X obj 106 203 vsl 15 128 0 12 0 0 empty empty empty 0 -9 0 10 -262144
-1 -1 1500 1;
#X obj 126 203 vsl 15 128 0 12 0 0 empty empty empty 0 -9 0 10 -262144
-1 -1 800 1;
#X obj 146 203 vsl 15 128 0 12 0 0 empty empty empty 0 -9 0 10 -262144
-1 -1 0 1;
#X obj 166 203 vsl 15 128 0 12 0 0 empty empty empty 0 -9 0 10 -262144
-1 -1 0 1;
#X obj 186 203 vsl 15 128 0 12 0 0 empty empty empty 0 -9 0 10 -262144
-1 -1 0 1;
#X obj 206 203 vsl 15 127 0 12 0 0 empty empty empty 0 -9 0 10 -262144
-1 -1 0 1;
#X obj 226 203 vsl 15 128 0 12 0 0 empty empty empty 0 -9 0 10 -262144
-1 -1 0 1;
#X obj 246 203 vsl 15 128 0 12 0 0 empty empty empty 0 -9 0 10 -262144
-1 -1 0 1;
#X obj 266 203 vsl 15 128 0 12 0 0 empty empty empty 0 -9 0 10 -262144
-1 -1 0 1;
#X obj 286 203 vsl 15 128 0 12 0 0 empty empty empty 0 -9 0 10 -262144
-1 -1 0 1;
#X obj 306 203 vsl 15 128 0 12 0 0 empty empty empty 0 -9 0 10 -262144
-1 -1 0 1;
#X obj 326 203 vsl 15 128 0 12 0 0 empty empty empty 0 -9 0 10 -262144
-1 -1 0 1;
#X obj 366 203 vsl 15 128 0 12 0 0 empty empty empty 0 -9 0 10 -262144
-1 -1 0 1;
#X obj 346 203 vsl 15 128 0 12 0 0 empty empty empty 0 -9 0 10 -262144
-1 -1 0 1;
#X obj 47 346 seq, f 46;
#X obj 283 1284 vsl 15 128 0 127 0 0 empty empty empty 0 -9 0 10 -262144
-1 -1 0 1;
#X obj 301 1284 vsl 15 128 0 127 0 0 empty empty empty 0 -9 0 10 -262144
-1 -1 3400 1;
#X obj 320 1284 vsl 15 128 0 127 0 0 empty empty empty 0 -9 0 10 -262144
-1 -1 0 1;
#X obj 338 1284 vsl 15 128 0 127 0 0 empty empty empty 0 -9 0 10 -262144
-1 -1 0 1;
#X text 283 1261 a;
#X text 301 1261 d;
#X text 320 1261 s;
#X text 338 1261 r;
#X obj 283 1444 s output;
#X obj 283 1421 four_params;
#X obj 357 1377 r ADSR_OFFSET;
#X obj 493 1284 vsl 15 128 0 127 0 0 empty empty empty 0 -9 0 10 -262144
-1 -1 200 1;
#X obj 511 1284 vsl 15 128 0 127 0 0 empty empty empty 0 -9 0 10 -262144
-1 -1 4500 1;
#X obj 530 1284 vsl 15 128 0 127 0 0 empty empty empty 0 -9 0 10 -262144
-1 -1 0 1;
#X obj 548 1284 vsl 15 128 0 127 0 0 empty empty empty 0 -9 0 10 -262144
-1 -1 2000 1;
#X text 493 1261 a;
#X text 511 1261 d;
#X text 530 1261 s;
#X text 548 1261 r;
#X obj 493 1444 s output;
#X obj 493 1421 four_params;
#X obj 567 1377 r ADSR_OFFSET;
#X obj 357 1398 + 4;
#X obj 567 1398 + 8;
#X text 400 670 osc1;
#X obj 102 1479 vsl 15 128 0 127 0 0 empty empty empty 0 -9 0 10 -262144
-1 -1 0 1;
#X obj 55 1638 s output;
#X obj 55 1615 two_params, f 14;
#X obj 150 1593 + 0;
#X obj 150 1572 r LFO_OFFSET;
#X obj 819 279 loadbang;
#X obj 819 300 48;
#X obj 819 322 s LFO_OFFSET;
#X obj 275 1526 vradio 15 1 0 4 empty empty empty 0 -8 0 10 -262144
-1 -1 1;
#X text 295 1526 sin;
#X text 295 1540 saw;
#X text 295 1555 sq;
#X text 295 1570 rnd;
#X obj 275 1593 * 32;
#X obj 322 1479 vsl 15 128 0 127 0 0 empty empty empty 0 -9 0 10 -262144
-1 -1 0 1;
#X obj 275 1638 s output;
#X obj 275 1615 two_params, f 14;
#X obj 370 1572 r LFO_OFFSET;
#X obj 495 1526 vradio 15 1 0 4 empty empty empty 0 -8 0 10 -262144
-1 -1 2;
#X text 515 1526 sin;
#X text 515 1540 saw;
#X text 515 1555 sq;
#X text 515 1570 rnd;
#X obj 495 1593 * 32;
#X obj 542 1479 vsl 15 128 0 127 0 0 empty empty empty 0 -9 0 10 -262144
-1 -1 0 1;
#X obj 495 1638 s output;
#X obj 495 1615 two_params, f 14;
#X obj 590 1572 r LFO_OFFSET;
#X obj 370 1593 + 2;
#X obj 590 1593 + 4;
#X text 593 989 filter;
#X obj 833 1284 vsl 15 128 0 127 0 0 empty empty empty 0 -9 0 10 -262144
-1 -1 12700 1;
#X obj 851 1284 vsl 15 128 0 127 0 0 empty empty empty 0 -9 0 10 -262144
-1 -1 12700 1;
#X obj 870 1284 vsl 15 128 0 127 0 0 empty empty empty 0 -9 0 10 -262144
-1 -1 0 1;
#X obj 888 1284 vsl 15 128 0 127 0 0 empty empty empty 0 -9 0 10 -262144
-1 -1 0 1;
#X obj 833 1444 s output;
#X obj 833 1421 four_params;
#X obj 907 1377 r OSC_OFFSET;
#X obj 907 1398 + 0;
#X obj 819 392 s OSC_OFFSET;
#X obj 1003 1284 vsl 15 128 0 127 0 0 empty empty empty 0 -9 0 10 -262144
-1 -1 0 1;
#X obj 1021 1284 vsl 15 128 0 127 0 0 empty empty empty 0 -9 0 10 -262144
-1 -1 12700 1;
#X obj 1040 1284 vsl 15 128 0 127 0 0 empty empty empty 0 -9 0 10 -262144
-1 -1 0 1;
#X obj 1058 1284 vsl 15 128 0 127 0 0 empty empty empty 0 -9 0 10 -262144
-1 -1 0 1;
#X obj 1003 1444 s output;
#X obj 1003 1421 four_params;
#X obj 1077 1377 r OSC_OFFSET;
#X obj 1173 1284 vsl 15 128 0 127 0 0 empty empty empty 0 -9 0 10 -262144
-1 -1 0 1;
#X obj 1191 1284 vsl 15 128 0 127 0 0 empty empty empty 0 -9 0 10 -262144
-1 -1 0 1;
#X obj 1210 1284 vsl 15 128 0 127 0 0 empty empty empty 0 -9 0 10 -262144
-1 -1 0 1;
#X obj 1228 1284 vsl 15 128 0 127 0 0 empty empty empty 0 -9 0 10 -262144
-1 -1 0 1;
#X obj 1173 1444 s output;
#X obj 1173 1421 four_params;
#X obj 1247 1377 r OSC_OFFSET;
#X obj 1077 1398 + 4;
#X obj 1247 1398 + 8;
#X obj 819 370 64;
#X obj 819 349 loadbang;
#X obj 282 865 r OSC_MOD_OFFSET;
#X obj 820 182 s OSC_MOD_OFFSET;
#X msg 452 69 50 127;
#X msg 530 72 60 127;
#X msg 607 66 40 127;
#X obj 428 862 hsl 128 15 0 127 0 0 empty empty empty -2 -8 0 10 -262144
-1 -1 600 1;
#X text 573 860 osc detune;
#X obj 407 1151 hsl 128 15 0 127 0 0 empty empty empty -2 -8 0 10 -262144
-1 -1 0 1;
#X obj 407 1011 hsl 128 15 0 127 0 0 empty empty empty -2 -8 0 10 -262144
-1 -1 8000 1;
#X text 545 1009 frequency;
#X text 552 1149 resonance;
#X connect 0 0 2 0;
#X connect 0 0 19 0;
#X connect 1 0 143 0;
#X connect 2 0 0 1;
#X connect 3 0 4 0;
#X connect 3 1 5 0;
#X connect 3 2 6 0;
#X connect 3 3 7 0;
#X connect 3 4 8 0;
#X connect 3 5 9 0;
#X connect 3 6 10 0;
#X connect 3 7 11 0;
#X connect 3 8 12 0;
#X connect 3 9 13 0;
#X connect 3 10 14 0;
#X connect 3 11 15 0;
#X connect 3 12 16 0;
#X connect 3 13 17 0;
#X connect 3 14 18 0;
#X connect 3 15 20 0;
#X connect 19 0 3 0;
#X connect 19 0 221 0;
#X connect 21 0 19 1;
#X connect 22 0 25 0;
#X connect 23 0 156 1;
#X connect 24 0 158 0;
#X connect 25 0 143 1;
#X connect 26 0 27 0;
#X connect 27 0 1 0;
#X connect 28 0 30 0;
#X connect 31 0 28 0;
#X connect 32 0 160 0;
#X connect 33 0 160 1;
#X connect 34 0 160 2;
#X connect 35 0 160 3;
#X connect 45 0 145 0;
#X connect 47 0 50 0;
#X connect 48 0 45 0;
#X connect 50 0 144 0;
#X connect 51 0 86 0;
#X connect 53 0 51 0;
#X connect 55 0 87 0;
#X connect 56 0 55 0;
#X connect 58 0 62 0;
#X connect 59 0 62 1;
#X connect 60 0 62 2;
#X connect 61 0 62 3;
#X connect 62 0 63 0;
#X connect 68 0 59 0;
#X connect 69 0 73 0;
#X connect 70 0 73 1;
#X connect 71 0 73 2;
#X connect 72 0 73 3;
#X connect 73 0 74 0;
#X connect 79 0 69 0;
#X connect 80 0 71 0;
#X connect 81 0 72 0;
#X connect 82 0 58 0;
#X connect 83 0 60 0;
#X connect 84 0 61 0;
#X connect 85 0 70 0;
#X connect 86 0 42 0;
#X connect 87 0 54 0;
#X connect 90 0 95 0;
#X connect 95 0 249 0;
#X connect 97 0 147 0;
#X connect 99 0 97 0;
#X connect 101 0 146 0;
#X connect 103 0 101 0;
#X connect 104 0 105 0;
#X connect 105 0 111 0;
#X connect 105 1 112 0;
#X connect 107 0 108 0;
#X connect 108 0 113 0;
#X connect 108 1 114 0;
#X connect 111 0 148 0;
#X connect 112 0 148 0;
#X connect 113 0 148 0;
#X connect 114 0 148 0;
#X connect 117 0 150 0;
#X connect 118 0 149 0;
#X connect 119 0 118 0;
#X connect 120 0 117 0;
#X connect 121 0 117 1;
#X connect 121 0 118 1;
#X connect 122 0 120 0;
#X connect 123 0 121 0;
#X connect 124 0 119 0;
#X connect 125 0 126 0;
#X connect 128 0 129 0;
#X connect 129 0 125 0;
#X connect 130 0 104 0;
#X connect 131 0 107 0;
#X connect 134 0 133 0;
#X connect 136 0 135 0;
#X connect 138 0 140 0;
#X connect 139 0 140 1;
#X connect 141 0 138 0;
#X connect 141 1 139 0;
#X connect 142 0 141 0;
#X connect 143 0 0 0;
#X connect 144 0 41 0;
#X connect 145 0 44 0;
#X connect 146 0 100 0;
#X connect 147 0 96 0;
#X connect 148 0 106 0;
#X connect 149 0 115 0;
#X connect 150 0 116 0;
#X connect 151 0 307 0;
#X connect 151 0 308 0;
#X connect 151 0 309 0;
#X connect 152 0 136 0;
#X connect 152 0 134 0;
#X connect 152 0 155 0;
#X connect 153 0 154 0;
#X connect 155 0 137 0;
#X connect 156 0 132 0;
#X connect 156 1 132 1;
#X connect 157 0 156 2;
#X connect 158 0 156 0;
#X connect 159 0 158 1;
#X connect 160 0 40 0;
#X connect 161 0 160 4;
#X connect 163 0 161 0;
#X connect 165 0 164 0;
#X connect 166 0 180 0;
#X connect 167 0 165 1;
#X connect 168 0 165 2;
#X connect 169 0 165 4;
#X connect 170 0 165 5;
#X connect 171 0 165 6;
#X connect 172 0 165 3;
#X connect 180 0 165 0;
#X connect 182 0 181 0;
#X connect 183 0 182 1;
#X connect 184 0 182 2;
#X connect 185 0 182 4;
#X connect 186 0 182 5;
#X connect 187 0 182 6;
#X connect 188 0 182 3;
#X connect 195 0 182 8;
#X connect 196 0 306 0;
#X connect 197 0 202 0;
#X connect 198 0 197 0;
#X connect 199 0 196 0;
#X connect 200 0 201 0;
#X connect 201 0 162 0;
#X connect 203 0 159 0;
#X connect 204 0 203 0;
#X connect 205 0 221 1;
#X connect 206 0 221 2;
#X connect 207 0 221 3;
#X connect 208 0 221 4;
#X connect 209 0 221 5;
#X connect 210 0 221 6;
#X connect 211 0 221 7;
#X connect 212 0 221 8;
#X connect 213 0 221 9;
#X connect 214 0 221 10;
#X connect 215 0 221 11;
#X connect 216 0 221 12;
#X connect 217 0 221 13;
#X connect 218 0 221 14;
#X connect 219 0 221 16;
#X connect 220 0 221 15;
#X connect 221 0 24 0;
#X connect 222 0 231 0;
#X connect 223 0 231 1;
#X connect 224 0 231 2;
#X connect 225 0 231 3;
#X connect 231 0 230 0;
#X connect 232 0 244 0;
#X connect 233 0 242 0;
#X connect 234 0 242 1;
#X connect 235 0 242 2;
#X connect 236 0 242 3;
#X connect 242 0 241 0;
#X connect 243 0 245 0;
#X connect 244 0 231 4;
#X connect 245 0 242 4;
#X connect 247 0 249 1;
#X connect 249 0 248 0;
#X connect 250 0 249 2;
#X connect 251 0 250 0;
#X connect 252 0 253 0;
#X connect 253 0 254 0;
#X connect 255 0 260 0;
#X connect 260 0 263 0;
#X connect 261 0 263 1;
#X connect 263 0 262 0;
#X connect 264 0 275 0;
#X connect 265 0 270 0;
#X connect 270 0 273 0;
#X connect 271 0 273 1;
#X connect 273 0 272 0;
#X connect 274 0 276 0;
#X connect 275 0 263 2;
#X connect 276 0 273 2;
#X connect 278 0 283 0;
#X connect 279 0 283 1;
#X connect 280 0 283 2;
#X connect 281 0 283 3;
#X connect 283 0 282 0;
#X connect 284 0 285 0;
#X connect 285 0 283 4;
#X connect 287 0 292 0;
#X connect 288 0 292 1;
#X connect 289 0 292 2;
#X connect 290 0 292 3;
#X connect 292 0 291 0;
#X connect 293 0 301 0;
#X connect 294 0 299 0;
#X connect 295 0 299 1;
#X connect 296 0 299 2;
#X connect 297 0 299 3;
#X connect 299 0 298 0;
#X connect 300 0 302 0;
#X connect 301 0 292 4;
#X connect 302 0 299 4;
#X connect 303 0 286 0;
#X connect 304 0 303 0;
#X connect 305 0 165 8;
#X connect 307 0 133 0;
#X connect 308 0 135 0;
#X connect 309 0 137 0;
#X connect 310 0 165 7;
#X connect 312 0 182 7;
#X connect 313 0 182 0;
