#N canvas 2115 237 960 681 10;
#X obj 151 133 i;
#X obj 149 73 tgl 15 0 empty empty empty 17 7 0 10 -262144 -1 -1 1
1;
#X obj 176 133 + 1;
#X obj 151 173 sel 0 1 2 3 4 5 6 7 8 9 10 11 12 13 14 15, f 46;
#X obj 151 193 bng 15 250 50 0 empty empty empty 17 7 0 10 -262144
-1 -1;
#X obj 171 193 bng 15 250 50 0 empty empty empty 17 7 0 10 -262144
-1 -1;
#X obj 191 193 bng 15 250 50 0 empty empty empty 17 7 0 10 -262144
-1 -1;
#X obj 211 193 bng 15 250 50 0 empty empty empty 17 7 0 10 -262144
-1 -1;
#X obj 231 193 bng 15 250 50 0 empty empty empty 17 7 0 10 -262144
-1 -1;
#X obj 251 193 bng 15 250 50 0 empty empty empty 17 7 0 10 -262144
-1 -1;
#X obj 271 193 bng 15 250 50 0 empty empty empty 17 7 0 10 -262144
-1 -1;
#X obj 291 193 bng 15 250 50 0 empty empty empty 17 7 0 10 -262144
-1 -1;
#X obj 311 193 bng 15 250 50 0 empty empty empty 17 7 0 10 -262144
-1 -1;
#X obj 331 193 bng 15 250 50 0 empty empty empty 17 7 0 10 -262144
-1 -1;
#X obj 351 193 bng 15 250 50 0 empty empty empty 17 7 0 10 -262144
-1 -1;
#X obj 371 193 bng 15 250 50 0 empty empty empty 17 7 0 10 -262144
-1 -1;
#X obj 391 193 bng 15 250 50 0 empty empty empty 17 7 0 10 -262144
-1 -1;
#X obj 411 193 bng 15 250 50 0 empty empty empty 17 7 0 10 -262144
-1 -1;
#X obj 431 193 bng 15 250 50 0 empty empty empty 17 7 0 10 -262144
-1 -1;
#X obj 151 153 % 16;
#X obj 451 193 bng 15 250 50 0 empty empty empty 17 7 0 10 -262144
-1 -1;
#X obj 155 213 vsl 15 128 0 12 0 0 empty empty empty 0 -9 0 10 -262144
-1 -1 2400 1;
#X obj 175 213 vsl 15 128 0 12 0 0 empty empty empty 0 -9 0 10 -262144
-1 -1 3600 1;
#X obj 195 213 vsl 15 128 0 12 0 0 empty empty empty 0 -9 0 10 -262144
-1 -1 2700 1;
#X obj 215 213 vsl 15 128 0 12 0 0 empty empty empty 0 -9 0 10 -262144
-1 -1 3500 1;
#X obj 235 213 vsl 15 128 0 12 0 0 empty empty empty 0 -9 0 10 -262144
-1 -1 2700 1;
#X obj 255 213 vsl 15 128 0 12 0 0 empty empty empty 0 -9 0 10 -262144
-1 -1 3400 1;
#X obj 275 213 vsl 15 128 0 12 0 0 empty empty empty 0 -9 0 10 -262144
-1 -1 2900 1;
#X obj 295 213 vsl 15 127 0 12 0 0 empty empty empty 0 -9 0 10 -262144
-1 -1 2100 1;
#X obj 315 213 vsl 15 128 0 12 0 0 empty empty empty 0 -9 0 10 -262144
-1 -1 3500 1;
#X obj 335 213 vsl 15 128 0 12 0 0 empty empty empty 0 -9 0 10 -262144
-1 -1 6400 1;
#X obj 355 213 vsl 15 128 0 12 0 0 empty empty empty 0 -9 0 10 -262144
-1 -1 3100 1;
#X obj 375 213 vsl 15 128 0 12 0 0 empty empty empty 0 -9 0 10 -262144
-1 -1 3400 1;
#X obj 395 213 vsl 15 128 0 12 0 0 empty empty empty 0 -9 0 10 -262144
-1 -1 3600 1;
#X obj 415 213 vsl 15 128 0 12 0 0 empty empty empty 0 -9 0 10 -262144
-1 -1 5500 1;
#X obj 455 213 vsl 15 128 0 12 0 0 empty empty empty 0 -9 0 10 -262144
-1 -1 7100 1;
#X obj 435 213 vsl 15 128 0 12 0 0 empty empty empty 0 -9 0 10 -262144
-1 -1 4000 1;
#X obj 151 345 i, f 1;
#X obj 171 347 i, f 1;
#X obj 191 347 i, f 1;
#X obj 211 347 i, f 1;
#X obj 231 347 i, f 1;
#X obj 251 347 i, f 1;
#X obj 271 347 i, f 1;
#X obj 291 347 i, f 1;
#X obj 311 347 i, f 1;
#X obj 331 347 i, f 1;
#X obj 351 347 i, f 1;
#X obj 371 347 i, f 1;
#X obj 391 347 i, f 1;
#X obj 411 347 i, f 1;
#X obj 431 347 i, f 1;
#X obj 451 347 i, f 1;
#X floatatom 215 139 5 1 16 0 - - -, f 5;
#X floatatom 210 73 5 0 0 0 - - -, f 5;
#X obj 205 438 vsl 15 30 0 127 0 1 empty empty empty 0 -9 0 10 -262144
-1 -1 2900 1;
#X obj 151 364 nbx 4 14 -1e+37 1e+37 0 0 empty empty empty 0 -8 0 10
-262144 -1 -1 2 256;
#X obj 210 91 expr 60000 / $f1;
#X obj 147 30 key;
#X obj 148 51 sel 32;
#X floatatom 748 2578 5 0 127 0 - - -, f 5;
#X text 790 2576 currentProgram;
#X msg 748 2596 send ProgramChange 0 0 \$1;
#X obj 749 2544 hradio 15 1 0 8 empty empty empty 0 -8 0 10 -262144
-1 -1 0;
#X obj 203 862 vsl 15 128 0 127 0 0 empty empty empty 0 -9 0 10 -262144
-1 -1 0 1;
#X obj 225 862 vsl 15 128 0 127 0 0 empty empty empty 0 -9 0 10 -262144
-1 -1 0 1;
#X obj 247 862 vsl 15 128 0 127 0 0 empty empty empty 0 -9 0 10 -262144
-1 -1 0 1;
#X obj 270 862 vsl 15 128 0 127 0 0 empty empty empty 0 -9 0 10 -262144
-1 -1 0 1;
#X text 222 835 a;
#X text 244 835 d;
#X text 266 835 s;
#X text 289 835 r;
#N canvas 2582 603 450 300 (subpatch) 0;
#X obj 41 62 inlet;
#X obj 111 62 inlet;
#X obj 181 62 inlet;
#X obj 251 62 inlet;
#X obj 41 182 outlet;
#X obj 41 95 pack 0 1;
#X obj 111 95 pack 0 2;
#X obj 181 95 pack 0 3;
#X obj 251 95 pack 0 4;
#X msg 41 139 \$1 \$2;
#X connect 0 0 5 0;
#X connect 1 0 6 0;
#X connect 2 0 7 0;
#X connect 3 0 8 0;
#X connect 5 0 9 0;
#X connect 6 0 9 0;
#X connect 7 0 9 0;
#X connect 8 0 9 0;
#X connect 9 0 4 0;
#X restore 222 999 pd;
#X obj 220 1022 s output;
#X obj 707 750 s output;
#X text 849 706 Volume;
#X obj 710 706 hsl 128 15 0 127 0 0 empty empty empty -2 -8 0 10 -262144
-1 -1 0 1;
#X obj 491 848 vsl 15 128 0 127 0 0 empty empty empty 0 -9 0 10 -262144
-1 -1 6000 1;
#X obj 513 848 vsl 15 128 0 127 0 0 empty empty empty 0 -9 0 10 -262144
-1 -1 12000 1;
#X obj 535 848 vsl 15 128 0 127 0 0 empty empty empty 0 -9 0 10 -262144
-1 -1 0 1;
#X obj 558 848 vsl 15 128 0 127 0 0 empty empty empty 0 -9 0 10 -262144
-1 -1 0 1;
#X text 491 826 a;
#X text 513 826 d;
#X text 535 826 s;
#X text 558 826 r;
#N canvas 1920 93 1280 931 (subpatch) 0;
#X obj 41 62 inlet;
#X obj 111 62 inlet;
#X obj 181 62 inlet;
#X obj 251 62 inlet;
#X obj 41 182 outlet;
#X obj 41 95 pack 0 5;
#X obj 111 95 pack 0 6;
#X obj 181 95 pack 0 7;
#X obj 251 95 pack 0 8;
#X msg 41 139 \$1 \$2;
#X connect 0 0 5 0;
#X connect 1 0 6 0;
#X connect 2 0 7 0;
#X connect 3 0 8 0;
#X connect 5 0 9 0;
#X connect 6 0 9 0;
#X connect 7 0 9 0;
#X connect 8 0 9 0;
#X connect 9 0 4 0;
#X restore 491 989 pd;
#X obj 491 1014 s output;
#X obj 132 1129 s output;
#X obj 173 2606 vsl 15 128 0 127 0 0 empty empty empty 0 -9 0 10 -262144
-1 -1 12700 1;
#X obj 203 2563 vsl 15 128 0 127 0 0 empty empty empty 0 -9 0 10 -262144
-1 -1 9900 1;
#X obj 735 848 vsl 15 128 0 127 0 0 empty empty empty 0 -9 0 10 -262144
-1 -1 0 1;
#X obj 757 848 vsl 15 128 0 127 0 0 empty empty empty 0 -9 0 10 -262144
-1 -1 0 1;
#X obj 779 848 vsl 15 128 0 127 0 0 empty empty empty 0 -9 0 10 -262144
-1 -1 12700 1;
#X obj 802 848 vsl 15 128 0 127 0 0 empty empty empty 0 -9 0 10 -262144
-1 -1 3400 1;
#N canvas 2531 597 450 300 (subpatch) 0;
#X obj 41 62 inlet;
#X obj 111 62 inlet;
#X obj 181 62 inlet;
#X obj 251 62 inlet;
#X obj 41 182 outlet;
#X obj 41 95 pack 0 9;
#X obj 112 95 pack 0 10;
#X obj 181 95 pack 0 11;
#X obj 251 95 pack 0 12;
#X msg 41 139 \$1 \$2;
#X connect 0 0 5 0;
#X connect 1 0 6 0;
#X connect 2 0 7 0;
#X connect 3 0 8 0;
#X connect 5 0 9 0;
#X connect 6 0 9 0;
#X connect 7 0 9 0;
#X connect 8 0 9 0;
#X connect 9 0 4 0;
#X restore 735 989 pd;
#X obj 735 1014 s output;
#X text 735 825 a;
#X text 757 825 d;
#X text 779 825 s;
#X text 802 825 r;
#X obj 492 750 s output;
#X obj 206 2536 r fFreq;
#X obj 148 2571 r fRes;
#X obj 492 684 r fEnv;
#X obj 602 1628 s output;
#X obj 404 1916 s output;
#X obj 407 1871 hsl 128 15 0 127 0 0 empty empty empty -2 -8 0 10 -262144
-1 -1 0 1;
#X text 451 1851 lfo1 speed;
#X text 198 665 PITCH ADSR;
#X text 775 650 AMP ADSR;
#X text 563 672 FILTER ADSR;
#X obj 495 707 hsl 128 15 0 127 0 0 empty empty empty -2 -8 0 10 -262144
-1 -1 0 1;
#X text 211 1060 Attack Ratio;
#X obj 632 1129 s output;
#X obj 635 1085 hsl 128 15 0 127 0 0 empty empty empty -2 -8 0 10 -262144
-1 -1 0 1;
#X text 731 1056 Decay/Release Ratio;
#X obj 707 684 r aEnv;
#X obj 198 814 r aA;
#X obj 317 813 r aR;
#X obj 469 810 r pA;
#X obj 588 809 r pR;
#X obj 717 808 r fA;
#X obj 755 808 r fD;
#X obj 836 807 r fR;
#X obj 132 1061 r envARate;
#X obj 632 1060 r envDRRate;
#X obj 99 1156 cnv 15 800 20 empty empty empty 20 12 0 14 -233017 -66577
0;
#X obj 135 1085 hsl 128 15 0 127 0 0 empty empty empty -2 -8 0 10 -262144
-1 -1 0 1;
#X obj 605 1586 hsl 128 15 0 127 0 0 empty empty empty -2 -8 0 10 -262144
-1 -1 0 1;
#X text 669 1627 osc2 volume;
#X obj 602 1562 r o2v;
#X obj 602 1718 s output;
#X obj 605 1676 hsl 128 15 0 127 0 0 empty empty empty -2 -8 0 10 -262144
-1 -1 0 1;
#X obj 602 1652 r o2d;
#X text 669 1717 osc2 detune;
#X obj 477 1574 vsl 15 128 0 127 0 0 empty empty empty 0 -9 0 10 -262144
-1 -1 0 1;
#X obj 499 1574 vsl 15 128 0 127 0 0 empty empty empty 0 -9 0 10 -262144
-1 -1 0 1;
#X obj 521 1574 vsl 15 128 0 127 0 0 empty empty empty 0 -9 0 10 -262144
-1 -1 0 1;
#X obj 544 1574 vsl 15 128 0 127 0 0 empty empty empty 0 -9 0 10 -262144
-1 -1 0 1;
#N canvas 403 525 450 300 (subpatch) 0;
#X obj 41 62 inlet;
#X obj 111 62 inlet;
#X obj 181 62 inlet;
#X obj 251 62 inlet;
#X obj 41 182 outlet;
#X obj 41 95 pack 0 26;
#X obj 111 95 pack 0 27;
#X obj 181 95 pack 0 28;
#X obj 251 95 pack 0 29;
#X msg 41 139 \$2 \$1;
#X connect 0 0 5 0;
#X connect 1 0 6 0;
#X connect 2 0 7 0;
#X connect 3 0 8 0;
#X connect 5 0 9 0;
#X connect 6 0 9 0;
#X connect 7 0 9 0;
#X connect 8 0 9 0;
#X connect 9 0 4 0;
#X restore 477 1715 pd;
#X obj 477 1740 s output;
#X text 461 1549 sin;
#X text 492 1548 saw;
#X text 521 1548 sqr;
#X text 553 1548 rnd;
#X obj 489 1527 r o2sw;
#X obj 164 1575 vsl 15 128 0 127 0 0 empty empty empty 0 -9 0 10 -262144
-1 -1 0 1;
#X obj 186 1575 vsl 15 128 0 127 0 0 empty empty empty 0 -9 0 10 -262144
-1 -1 0 1;
#X obj 208 1575 vsl 15 128 0 127 0 0 empty empty empty 0 -9 0 10 -262144
-1 -1 0 1;
#X obj 231 1575 vsl 15 128 0 127 0 0 empty empty empty 0 -9 0 10 -262144
-1 -1 0 1;
#N canvas 2289 457 450 300 (subpatch) 0;
#X obj 41 62 inlet;
#X obj 111 62 inlet;
#X obj 181 62 inlet;
#X obj 251 62 inlet;
#X obj 41 182 outlet;
#X obj 41 95 pack 0 16;
#X obj 111 95 pack 0 17;
#X obj 181 95 pack 0 18;
#X obj 251 94 pack 0 19;
#X msg 41 139 \$2 \$1;
#X connect 0 0 5 0;
#X connect 1 0 6 0;
#X connect 2 0 7 0;
#X connect 3 0 8 0;
#X connect 5 0 9 0;
#X connect 6 0 9 0;
#X connect 7 0 9 0;
#X connect 8 0 9 0;
#X connect 9 0 4 0;
#X restore 164 1716 pd;
#X obj 164 1741 s output;
#X text 148 1550 sin;
#X text 179 1549 saw;
#X text 208 1549 sqr;
#X text 240 1549 rnd;
#X obj 123 1529 r o1si;
#X obj 227 1529 r o1sq;
#X obj 280 1530 r o1rn;
#X obj 436 1528 r o2si;
#X obj 540 1528 r o2sq;
#X obj 594 1527 r o2rn;
#X obj 176 1528 r o1sw;
#X msg 602 1607 send ControlChange 0 0 24 \$1;
#X msg 602 1697 send ControlChange 0 0 25 \$1;
#X obj 116 1785 cnv 15 200 20 empty empty empty 20 12 0 14 -233017
-66577 0;
#X text 187 1503 OSC 1;
#X obj 396 1785 cnv 15 500 20 empty empty empty 20 12 0 14 -233017
-66577 0;
#X text 435 1504 OSC 2;
#X obj 796 807 r fS;
#X obj 147 1985 s output;
#X obj 147 1875 vradio 15 1 0 4 empty empty empty 0 -8 0 10 -262144
-1 -1 1;
#X text 167 1875 sin;
#X text 167 1889 saw;
#X text 167 1904 sq;
#X text 167 1919 rnd;
#X obj 147 1942 * 32;
#X obj 147 1851 r l1s;
#X obj 118 2010 cnv 15 800 20 empty empty empty 20 12 0 14 -233017
-66577 0;
#X text 142 1823 LFO PITCH;
#X obj 238 814 r aD;
#X obj 277 813 r aS;
#X obj 550 809 r pS;
#X obj 507 811 r pD;
#X obj 405 1849 r l1r;
#X obj 634 1272 s output;
#X obj 637 1228 hsl 128 15 0 127 0 0 empty empty empty -2 -8 0 10 -262144
-1 -1 0 1;
#X text 703 1203 pitch glide amt;
#X obj 635 1205 r pGlide;
#X obj 157 1267 s output;
#X obj 160 1223 hsl 128 15 0 127 0 0 empty empty empty -2 -8 0 10 -262144
-1 -1 0 1;
#X text 226 1198 pitch amt;
#X obj 158 1200 r pAmt;
#X obj 314 2521 ctlin;
#X floatatom 313 2603 5 0 0 0 - - -, f 5;
#X obj 314 2577 spigot;
#X obj 330 2548 == 1;
#X obj 312 2633 s fFreq;
#X obj 707 1916 s output;
#X obj 710 1871 hsl 128 15 0 127 0 0 empty empty empty -2 -8 0 10 -262144
-1 -1 0 1;
#X obj 707 1848 r ple;
#X text 759 1847 pitch lfo1 amt;
#X obj 412 2129 s output;
#X obj 415 2084 hsl 128 15 0 127 0 0 empty empty empty -2 -8 0 10 -262144
-1 -1 0 1;
#X obj 155 2198 s output;
#X obj 155 2088 vradio 15 1 0 4 empty empty empty 0 -8 0 10 -262144
-1 -1 0;
#X text 175 2088 sin;
#X text 175 2102 saw;
#X text 175 2117 sq;
#X text 175 2132 rnd;
#X obj 155 2155 * 32;
#X obj 126 2223 cnv 15 800 20 empty empty empty 20 12 0 14 -233017
-66577 0;
#X text 150 2036 LFO FILTER;
#X text 459 2064 lfo2 speed;
#X obj 413 2062 r l2r;
#X obj 155 2064 r l2s;
#X obj 1040 1843 tgl 15 0 empty empty empty 17 7 0 10 -262144 -1 -1
0 1;
#X obj 1040 1865 sel 0 1;
#X obj 1044 1946 s output;
#X obj 1130 1843 tgl 15 0 empty empty empty 17 7 0 10 -262144 -1 -1
0 1;
#X obj 1130 1865 sel 0 1;
#X obj 412 2349 s output;
#X obj 415 2304 hsl 128 15 0 127 0 0 empty empty empty -2 -8 0 10 -262144
-1 -1 0 1;
#X obj 155 2418 s output;
#X obj 155 2308 vradio 15 1 0 4 empty empty empty 0 -8 0 10 -262144
-1 -1 0;
#X text 175 2308 sin;
#X text 175 2322 saw;
#X text 175 2337 sq;
#X text 175 2352 rnd;
#X obj 155 2375 * 32;
#X text 459 2284 lfo2 speed;
#X text 150 2256 LFO AMP;
#X obj 155 2284 r l3s;
#X obj 413 2282 r l3r;
#X obj 99 1446 cnv 15 800 20 empty empty empty 20 12 0 14 -233017 -66577
0;
#X obj 126 2473 cnv 15 800 20 empty empty empty 20 12 0 14 -233017
-66577 0;
#X text 1035 1738 global lfo sync;
#X obj 707 2146 s output;
#X obj 710 2101 hsl 128 15 0 127 0 0 empty empty empty -2 -8 0 10 -262144
-1 -1 0 1;
#X text 779 2077 filter lfo2 amt;
#X obj 707 2078 r fLFOamt;
#X obj 1041 1891 1;
#X obj 1081 1891 17;
#X obj 1131 1891 33;
#X obj 1171 1891 49;
#X obj 560 2687 s output;
#X obj 524 2734 s output;
#X obj 524 2643 i;
#X obj 562 2642 i;
#X obj 624 2615 bng 15 250 50 0 empty empty empty 17 7 0 10 -262144
-1 -1;
#X obj 515 2586 bng 15 250 50 0 empty empty empty 17 7 0 10 -262144
-1 -1;
#X floatatom 542 2621 5 0 0 0 - - -, f 5;
#X obj 514 2544 r preseLoad;
#X obj 543 2570 r presetNumber;
#X obj 624 2592 r preseSave;
#X obj 162 1369 hsl 100 15 0 127 0 0 empty empty empty -2 -8 0 10 -262144
-1 -1 0 1;
#X obj 158 1391 s pAmt;
#X text 204 1347 Pitch Amt;
#X obj 159 1326 bendin;
#X obj 158 1347 / 128;
#X obj 198 754 s output;
#X obj 201 711 hsl 128 15 0 127 0 0 empty empty empty -2 -8 0 10 -262144
-1 -1 0 1;
#X obj 198 688 r pEnv;
#X obj 1041 1813 r l1sync;
#X obj 1131 1813 r l1sync;
#X obj 151 512 noteout;
#X obj 620 144 noteout;
#X msg 630 106 50 0;
#X obj 699 146 noteout;
#X msg 709 108 60 0;
#X obj 776 140 noteout;
#X msg 618 81 50 80;
#X msg 697 83 60 80;
#X msg 203 2719 \$1 96;
#X floatatom 657 332 0 0 0 0 - - -;
#X floatatom 724 332 0 0 0 0 - - -;
#X obj 657 359 ctlout;
#X obj 657 309 unpack 0 0;
#X obj 173 2776 s output;
#X msg 173 2753 \$1 97;
#X obj 657 285 r output;
#X obj 150 113 metro 180;
#X msg 132 1108 13 \$1;
#X msg 632 1108 14 \$1;
#X msg 707 729 127 \$1;
#X msg 157 1246 67 \$1;
#X msg 634 1251 66 \$1;
#X msg 147 1964 58 \$1;
#X msg 404 1895 57 \$1;
#X msg 708 1895 64 \$1;
#X msg 1043 1916 56 \$1;
#X msg 155 2177 60 \$1;
#X msg 412 2108 59 \$1;
#X msg 708 2125 99 \$1;
#X msg 412 2328 61 \$1;
#X msg 155 2397 62 \$1;
#X msg 561 2666 126 \$1;
#X msg 523 2711 125 \$1;
#X obj 591 61 bng 15 250 50 0 empty empty empty 17 7 0 10 -262144 -1
-1;
#X obj 588 86 bng 15 250 50 0 empty empty empty 17 7 0 10 -262144 -1
-1;
#X msg 774 77 40 80;
#X obj 424 1065 r output;
#X obj 424 1095 print;
#X msg 197 732 \$1 112, f 7;
#X msg 492 728 \$1 113;
#X msg 786 102 40 0;
#X obj 151 477 makenote 60 20 20;
#X obj 271 438 vsl 15 30 50 500 0 1 empty empty empty 0 -9 0 10 -262144
-1 -1 2900 1;
#X obj 151 409 +;
#X obj 211 383 nbx 4 14 -1e+37 1e+37 0 0 empty empty empty 0 -8 0 10
-262144 -1 -1 75 256;
#X connect 0 0 2 0;
#X connect 0 0 19 0;
#X connect 1 0 281 0;
#X connect 2 0 0 1;
#X connect 3 0 4 0;
#X connect 3 1 5 0;
#X connect 3 2 6 0;
#X connect 3 3 7 0;
#X connect 3 4 8 0;
#X connect 3 5 9 0;
#X connect 3 6 10 0;
#X connect 3 7 11 0;
#X connect 3 8 12 0;
#X connect 3 9 13 0;
#X connect 3 10 14 0;
#X connect 3 11 15 0;
#X connect 3 12 16 0;
#X connect 3 13 17 0;
#X connect 3 14 18 0;
#X connect 3 15 20 0;
#X connect 4 0 37 0;
#X connect 5 0 38 0;
#X connect 6 0 39 0;
#X connect 7 0 40 0;
#X connect 8 0 41 0;
#X connect 9 0 42 0;
#X connect 10 0 43 0;
#X connect 11 0 44 0;
#X connect 12 0 45 0;
#X connect 13 0 46 0;
#X connect 14 0 47 0;
#X connect 15 0 48 0;
#X connect 16 0 49 0;
#X connect 17 0 50 0;
#X connect 18 0 51 0;
#X connect 19 0 3 0;
#X connect 20 0 52 0;
#X connect 21 0 37 1;
#X connect 22 0 38 1;
#X connect 23 0 39 1;
#X connect 24 0 40 1;
#X connect 25 0 41 1;
#X connect 26 0 42 1;
#X connect 27 0 43 1;
#X connect 28 0 44 1;
#X connect 29 0 45 1;
#X connect 30 0 46 1;
#X connect 31 0 47 1;
#X connect 32 0 48 1;
#X connect 33 0 49 1;
#X connect 34 0 50 1;
#X connect 35 0 52 1;
#X connect 36 0 51 1;
#X connect 37 0 56 0;
#X connect 38 0 56 0;
#X connect 39 0 56 0;
#X connect 40 0 56 0;
#X connect 41 0 56 0;
#X connect 42 0 56 0;
#X connect 43 0 56 0;
#X connect 44 0 56 0;
#X connect 45 0 56 0;
#X connect 46 0 56 0;
#X connect 47 0 56 0;
#X connect 48 0 56 0;
#X connect 49 0 56 0;
#X connect 50 0 56 0;
#X connect 51 0 56 0;
#X connect 52 0 56 0;
#X connect 53 0 19 1;
#X connect 54 0 57 0;
#X connect 55 0 306 1;
#X connect 56 0 308 0;
#X connect 57 0 281 1;
#X connect 58 0 59 0;
#X connect 59 0 1 0;
#X connect 60 0 62 0;
#X connect 63 0 60 0;
#X connect 64 0 72 0;
#X connect 65 0 72 1;
#X connect 66 0 72 2;
#X connect 67 0 72 3;
#X connect 72 0 73 0;
#X connect 76 0 284 0;
#X connect 77 0 85 0;
#X connect 78 0 85 1;
#X connect 79 0 85 2;
#X connect 80 0 85 3;
#X connect 85 0 86 0;
#X connect 88 0 279 0;
#X connect 89 0 273 0;
#X connect 90 0 94 0;
#X connect 91 0 94 1;
#X connect 92 0 94 2;
#X connect 93 0 94 3;
#X connect 94 0 95 0;
#X connect 101 0 89 0;
#X connect 102 0 88 0;
#X connect 103 0 111 0;
#X connect 106 0 288 0;
#X connect 111 0 304 0;
#X connect 114 0 283 0;
#X connect 116 0 76 0;
#X connect 117 0 64 0;
#X connect 118 0 67 0;
#X connect 119 0 77 0;
#X connect 120 0 80 0;
#X connect 121 0 90 0;
#X connect 122 0 91 0;
#X connect 123 0 93 0;
#X connect 124 0 127 0;
#X connect 125 0 114 0;
#X connect 127 0 282 0;
#X connect 128 0 163 0;
#X connect 130 0 128 0;
#X connect 132 0 164 0;
#X connect 133 0 132 0;
#X connect 135 0 139 0;
#X connect 136 0 139 1;
#X connect 137 0 139 2;
#X connect 138 0 139 3;
#X connect 139 0 140 0;
#X connect 145 0 136 0;
#X connect 146 0 150 0;
#X connect 147 0 150 1;
#X connect 148 0 150 2;
#X connect 149 0 150 3;
#X connect 150 0 151 0;
#X connect 156 0 146 0;
#X connect 157 0 148 0;
#X connect 158 0 149 0;
#X connect 159 0 135 0;
#X connect 160 0 137 0;
#X connect 161 0 138 0;
#X connect 162 0 147 0;
#X connect 163 0 104 0;
#X connect 164 0 131 0;
#X connect 169 0 92 0;
#X connect 171 0 176 0;
#X connect 176 0 287 0;
#X connect 177 0 171 0;
#X connect 180 0 65 0;
#X connect 181 0 66 0;
#X connect 182 0 79 0;
#X connect 183 0 78 0;
#X connect 184 0 106 0;
#X connect 186 0 286 0;
#X connect 188 0 186 0;
#X connect 190 0 285 0;
#X connect 192 0 190 0;
#X connect 193 0 195 0;
#X connect 193 1 196 0;
#X connect 194 0 197 0;
#X connect 195 0 194 0;
#X connect 196 0 195 1;
#X connect 199 0 289 0;
#X connect 200 0 199 0;
#X connect 203 0 292 0;
#X connect 205 0 210 0;
#X connect 210 0 291 0;
#X connect 214 0 203 0;
#X connect 215 0 205 0;
#X connect 216 0 217 0;
#X connect 217 0 241 0;
#X connect 217 1 242 0;
#X connect 219 0 220 0;
#X connect 220 0 243 0;
#X connect 220 1 244 0;
#X connect 222 0 294 0;
#X connect 224 0 229 0;
#X connect 229 0 295 0;
#X connect 232 0 224 0;
#X connect 233 0 222 0;
#X connect 238 0 293 0;
#X connect 240 0 238 0;
#X connect 241 0 290 0;
#X connect 242 0 290 0;
#X connect 243 0 290 0;
#X connect 244 0 290 0;
#X connect 247 0 297 0;
#X connect 248 0 296 0;
#X connect 249 0 248 0;
#X connect 250 0 247 0;
#X connect 251 0 247 1;
#X connect 251 0 248 1;
#X connect 252 0 250 0;
#X connect 253 0 251 0;
#X connect 254 0 249 0;
#X connect 255 0 256 0;
#X connect 258 0 259 0;
#X connect 259 0 255 0;
#X connect 261 0 303 0;
#X connect 262 0 261 0;
#X connect 263 0 216 0;
#X connect 264 0 219 0;
#X connect 267 0 266 0;
#X connect 269 0 268 0;
#X connect 271 0 266 0;
#X connect 272 0 268 0;
#X connect 273 0 278 0;
#X connect 274 0 276 0;
#X connect 275 0 276 1;
#X connect 277 0 274 0;
#X connect 277 1 275 0;
#X connect 279 0 278 0;
#X connect 280 0 277 0;
#X connect 281 0 0 0;
#X connect 282 0 87 0;
#X connect 283 0 113 0;
#X connect 284 0 74 0;
#X connect 285 0 189 0;
#X connect 286 0 185 0;
#X connect 287 0 170 0;
#X connect 288 0 105 0;
#X connect 289 0 198 0;
#X connect 290 0 218 0;
#X connect 291 0 204 0;
#X connect 292 0 202 0;
#X connect 293 0 237 0;
#X connect 294 0 221 0;
#X connect 295 0 223 0;
#X connect 296 0 245 0;
#X connect 297 0 246 0;
#X connect 298 0 271 0;
#X connect 298 0 272 0;
#X connect 298 0 300 0;
#X connect 299 0 269 0;
#X connect 299 0 267 0;
#X connect 299 0 305 0;
#X connect 300 0 270 0;
#X connect 301 0 302 0;
#X connect 303 0 260 0;
#X connect 304 0 100 0;
#X connect 305 0 270 0;
#X connect 306 0 265 0;
#X connect 306 1 265 1;
#X connect 307 0 306 2;
#X connect 308 0 306 0;
#X connect 309 0 308 1;
