#N canvas 2152 242 960 681 10;
#X obj 54 139 i;
#X obj 53 101 tgl 15 0 empty empty empty 17 7 0 10 -262144 -1 -1 0
1;
#X obj 79 139 + 1;
#X obj 73 179 sel 0 1 2 3 4 5 6 7 8 9 10 11 12 13 14 15, f 46;
#X obj 73 199 bng 15 250 50 0 empty empty empty 17 7 0 10 -262144 -1
-1;
#X obj 93 199 bng 15 250 50 0 empty empty empty 17 7 0 10 -262144 -1
-1;
#X obj 113 199 bng 15 250 50 0 empty empty empty 17 7 0 10 -262144
-1 -1;
#X obj 133 199 bng 15 250 50 0 empty empty empty 17 7 0 10 -262144
-1 -1;
#X obj 153 199 bng 15 250 50 0 empty empty empty 17 7 0 10 -262144
-1 -1;
#X obj 173 199 bng 15 250 50 0 empty empty empty 17 7 0 10 -262144
-1 -1;
#X obj 193 199 bng 15 250 50 0 empty empty empty 17 7 0 10 -262144
-1 -1;
#X obj 213 199 bng 15 250 50 0 empty empty empty 17 7 0 10 -262144
-1 -1;
#X obj 233 199 bng 15 250 50 0 empty empty empty 17 7 0 10 -262144
-1 -1;
#X obj 253 199 bng 15 250 50 0 empty empty empty 17 7 0 10 -262144
-1 -1;
#X obj 273 199 bng 15 250 50 0 empty empty empty 17 7 0 10 -262144
-1 -1;
#X obj 293 199 bng 15 250 50 0 empty empty empty 17 7 0 10 -262144
-1 -1;
#X obj 313 199 bng 15 250 50 0 empty empty empty 17 7 0 10 -262144
-1 -1;
#X obj 333 199 bng 15 250 50 0 empty empty empty 17 7 0 10 -262144
-1 -1;
#X obj 353 199 bng 15 250 50 0 empty empty empty 17 7 0 10 -262144
-1 -1;
#X obj 54 159 % 16;
#X obj 373 199 bng 15 250 50 0 empty empty empty 17 7 0 10 -262144
-1 -1;
#X floatatom 118 145 5 1 16 0 - - -, f 5;
#X floatatom 113 79 5 0 0 0 - - -, f 5;
#X obj 108 475 vsl 15 30 0 127 0 1 empty empty empty 0 -9 0 10 -262144
-1 -1 2500 1;
#X obj 54 392 nbx 4 14 -1e+37 1e+37 0 0 empty empty empty 0 -8 0 10
-262144 -1 -1 7 256;
#X obj 113 97 expr 60000 / $f1;
#X obj 51 58 key;
#X obj 52 79 sel 32;
#X floatatom 321 1799 5 0 127 0 - - -, f 5;
#X text 363 1797 currentProgram;
#X msg 321 1817 send ProgramChange 0 0 \$1;
#X obj 322 1765 hradio 15 1 0 8 empty empty empty 0 -8 0 10 -262144
-1 -1 6;
#X obj 339 1077 vsl 15 128 0 127 0 0 empty empty empty 0 -9 0 10 -262144
-1 -1 5800 1;
#X obj 357 1077 vsl 15 128 0 127 0 0 empty empty empty 0 -9 0 10 -262144
-1 -1 3000 1;
#X obj 376 1077 vsl 15 128 0 127 0 0 empty empty empty 0 -9 0 10 -262144
-1 -1 3200 1;
#X obj 394 1077 vsl 15 128 0 127 0 0 empty empty empty 0 -9 0 10 -262144
-1 -1 4800 1;
#X text 339 1054 a;
#X text 357 1054 d;
#X text 376 1054 s;
#X text 394 1054 r;
#X obj 339 1237 s output;
#X obj 116 1953 s output;
#X obj 126 2402 s output;
#X text 195 1884 Attack Ratio;
#X obj 616 1953 s output;
#X obj 619 1909 hsl 128 15 0 127 0 0 empty empty empty -2 -8 0 10 -262144
-1 -1 0 1;
#X text 715 1880 Decay/Release Ratio;
#X obj 116 1885 r envARate;
#X obj 616 1884 r envDRRate;
#X obj 83 1980 cnv 15 800 20 empty empty empty 20 12 0 14 -233017 -66577
0;
#X obj 119 1909 hsl 128 15 0 127 0 0 empty empty empty -2 -8 0 10 -262144
-1 -1 0 1;
#X obj 129 2360 hsl 128 15 0 127 0 0 empty empty empty -2 -8 0 10 -262144
-1 -1 0 1;
#X text 193 2401 osc2 volume;
#X obj 126 2336 r o2v;
#X obj 126 2492 s output;
#X obj 129 2450 hsl 128 15 0 127 0 0 empty empty empty -2 -8 0 10 -262144
-1 -1 0 1;
#X obj 126 2426 r o2d;
#X text 193 2491 osc2 detune;
#X msg 126 2381 send ControlChange 0 0 24 \$1;
#X msg 126 2471 send ControlChange 0 0 25 \$1;
#X obj 579 1125 vradio 15 1 0 4 empty empty empty 0 -8 0 10 -262144
-1 -1 1;
#X text 599 1125 sin;
#X text 599 1139 saw;
#X text 599 1154 sq;
#X text 599 1169 rnd;
#X obj 579 1192 * 32;
#X obj 618 2096 s output;
#X obj 621 2052 hsl 128 15 0 127 0 0 empty empty empty -2 -8 0 10 -262144
-1 -1 0 1;
#X text 687 2027 pitch glide amt;
#X obj 619 2029 r pGlide;
#X obj 141 2091 s output;
#X obj 144 2047 hsl 128 15 0 127 0 0 empty empty empty -2 -8 0 10 -262144
-1 -1 0 1;
#X text 210 2022 pitch amt;
#X obj 142 2024 r pAmt;
#X obj 116 1715 tgl 15 0 empty empty empty 17 7 0 10 -262144 -1 -1
0 1;
#X obj 116 1737 sel 0 1;
#X obj 120 1818 s output;
#X obj 206 1715 tgl 15 0 empty empty empty 17 7 0 10 -262144 -1 -1
0 1;
#X obj 206 1737 sel 0 1;
#X obj 83 2270 cnv 15 800 20 empty empty empty 20 12 0 14 -233017 -66577
0;
#X text 117 1653 global lfo sync;
#X obj 117 1763 1;
#X obj 157 1763 17;
#X obj 207 1763 33;
#X obj 247 1763 49;
#X obj 424 2447 s output;
#X obj 388 2494 s output;
#X obj 388 2403 i;
#X obj 426 2402 i;
#X obj 488 2375 bng 15 250 50 0 empty empty empty 17 7 0 10 -262144
-1 -1;
#X obj 379 2346 bng 15 250 50 0 empty empty empty 17 7 0 10 -262144
-1 -1;
#X floatatom 406 2381 5 0 0 0 - - -, f 5;
#X obj 378 2304 r preseLoad;
#X obj 407 2330 r presetNumber;
#X obj 488 2352 r preseSave;
#X obj 146 2193 hsl 100 15 0 127 0 0 empty empty empty -2 -8 0 10 -262144
-1 -1 0 1;
#X obj 142 2215 s pAmt;
#X text 188 2171 Pitch Amt;
#X obj 143 2150 bendin;
#X obj 142 2171 / 128;
#X obj 116 1685 r l1sync;
#X obj 206 1685 r l1sync;
#X obj 576 113 noteout;
#X msg 586 75 50 0;
#X obj 655 115 noteout;
#X msg 665 77 60 0;
#X obj 732 109 noteout;
#X obj 53 119 metro 180;
#X msg 116 1932 13 \$1;
#X msg 616 1932 14 \$1;
#X msg 141 2070 67 \$1;
#X msg 618 2075 66 \$1;
#X msg 119 1788 56 \$1;
#X msg 425 2426 126 \$1;
#X msg 387 2471 125 \$1;
#X obj 547 30 bng 15 250 50 0 empty empty empty 17 7 0 10 -262144 -1
-1;
#X obj 544 55 bng 15 250 50 0 empty empty empty 17 7 0 10 -262144 -1
-1;
#X msg 742 71 40 0;
#X obj 54 514 makenote 60 20 20;
#X obj 174 475 vsl 15 30 50 500 0 1 empty empty empty 0 -9 0 10 -262144
-1 -1 2500 1;
#X obj 54 446 +;
#X obj 109 432 nbx 4 14 -1e+37 1e+37 0 0 empty empty empty 0 -8 0 10
-262144 -1 -1 36 256;
#X obj 339 1214 four_params;
#X obj 413 1191 + 0;
#X obj 567 214 s ADSR_OFFSET;
#X obj 155 961 s output;
#X obj 155 908 eight_params, f 26;
#X obj 155 728 hradio 15 1 0 5 empty empty empty 0 -8 0 10 -262144
-1 -1 2;
#X obj 180 768 hsl 128 15 0 127 0 0 empty empty empty -2 -8 0 10 -262144
-1 -1 0 1;
#X obj 180 788 hsl 128 15 0 127 0 0 empty empty empty -2 -8 0 10 -262144
-1 -1 0 1;
#X obj 180 828 hsl 128 15 0 127 0 0 empty empty empty -2 -8 0 10 -262144
-1 -1 500 1;
#X obj 180 848 hsl 128 15 0 127 0 0 empty empty empty -2 -8 0 10 -262144
-1 -1 0 1;
#X obj 180 868 hsl 128 15 0 127 0 0 empty empty empty -2 -8 0 10 -262144
-1 -1 0 1;
#X obj 180 808 hsl 128 15 0 127 0 0 empty empty empty -2 -8 0 10 -262144
-1 -1 0 1;
#X text 318 786 adsr 1 amount;
#X text 318 766 adsr 0 amount;
#X text 318 806 adsr 2 amount;
#X text 325 826 lfo 0 amount;
#X text 325 848 lfo 1 amount;
#X text 325 866 lfo 2 amount;
#X obj 155 747 * 26;
#X obj 552 926 s output;
#X obj 552 903 eight_params, f 26;
#X obj 557 764 hsl 128 15 0 127 0 0 empty empty empty -2 -8 0 10 -262144
-1 -1 5900 1;
#X obj 557 784 hsl 128 15 0 127 0 0 empty empty empty -2 -8 0 10 -262144
-1 -1 0 1;
#X obj 557 824 hsl 128 15 0 127 0 0 empty empty empty -2 -8 0 10 -262144
-1 -1 4000 1;
#X obj 557 844 hsl 128 15 0 127 0 0 empty empty empty -2 -8 0 10 -262144
-1 -1 0 1;
#X obj 557 864 hsl 128 15 0 127 0 0 empty empty empty -2 -8 0 10 -262144
-1 -1 0 1;
#X obj 557 804 hsl 128 15 0 127 0 0 empty empty empty -2 -8 0 10 -262144
-1 -1 0 1;
#X text 695 782 adsr 1 amount;
#X text 695 762 adsr 0 amount;
#X text 695 802 adsr 2 amount;
#X text 702 822 lfo 0 amount;
#X text 702 844 lfo 1 amount;
#X text 702 862 lfo 2 amount;
#X obj 454 886 r FLT_OFFSET;
#X obj 567 331 32;
#X obj 567 310 loadbang;
#X obj 567 241 loadbang;
#X obj 567 172 loadbang;
#X obj 567 193 0;
#X obj 567 352 s FLT_OFFSET;
#X obj 109 412 36;
#X obj 109 392 loadbang;
#X obj 73 223 vsl 15 128 0 12 0 0 empty empty empty 0 -9 0 10 -262144
-1 -1 0 1;
#X obj 93 223 vsl 15 128 0 12 0 0 empty empty empty 0 -9 0 10 -262144
-1 -1 0 1;
#X obj 113 223 vsl 15 128 0 12 0 0 empty empty empty 0 -9 0 10 -262144
-1 -1 0 1;
#X obj 133 223 vsl 15 128 0 12 0 0 empty empty empty 0 -9 0 10 -262144
-1 -1 6800 1;
#X obj 153 223 vsl 15 128 0 12 0 0 empty empty empty 0 -9 0 10 -262144
-1 -1 0 1;
#X obj 173 223 vsl 15 128 0 12 0 0 empty empty empty 0 -9 0 10 -262144
-1 -1 0 1;
#X obj 193 223 vsl 15 128 0 12 0 0 empty empty empty 0 -9 0 10 -262144
-1 -1 8900 1;
#X obj 213 223 vsl 15 127 0 12 0 0 empty empty empty 0 -9 0 10 -262144
-1 -1 7900 1;
#X obj 233 223 vsl 15 128 0 12 0 0 empty empty empty 0 -9 0 10 -262144
-1 -1 6800 1;
#X obj 253 223 vsl 15 128 0 12 0 0 empty empty empty 0 -9 0 10 -262144
-1 -1 5200 1;
#X obj 273 223 vsl 15 128 0 12 0 0 empty empty empty 0 -9 0 10 -262144
-1 -1 9400 1;
#X obj 293 223 vsl 15 128 0 12 0 0 empty empty empty 0 -9 0 10 -262144
-1 -1 7000 1;
#X obj 313 223 vsl 15 128 0 12 0 0 empty empty empty 0 -9 0 10 -262144
-1 -1 8300 1;
#X obj 333 223 vsl 15 128 0 12 0 0 empty empty empty 0 -9 0 10 -262144
-1 -1 4300 1;
#X obj 373 223 vsl 15 128 0 12 0 0 empty empty empty 0 -9 0 10 -262144
-1 -1 0 1;
#X obj 353 223 vsl 15 128 0 12 0 0 empty empty empty 0 -9 0 10 -262144
-1 -1 0 1;
#X obj 54 366 seq, f 46;
#X text 152 696 osc1;
#X obj 626 1078 vsl 15 128 0 127 0 0 empty empty empty 0 -9 0 10 -262144
-1 -1 400 1;
#X obj 579 1237 s output;
#X obj 579 1214 two_params, f 14;
#X obj 566 380 loadbang;
#X obj 566 401 48;
#X obj 566 423 s LFO_OFFSET;
#X text 743 722 filter;
#X obj 109 1077 vsl 15 128 0 127 0 0 empty empty empty 0 -9 0 10 -262144
-1 -1 0 1;
#X obj 127 1077 vsl 15 128 0 127 0 0 empty empty empty 0 -9 0 10 -262144
-1 -1 0 1;
#X obj 146 1077 vsl 15 128 0 127 0 0 empty empty empty 0 -9 0 10 -262144
-1 -1 12700 1;
#X obj 164 1077 vsl 15 128 0 127 0 0 empty empty empty 0 -9 0 10 -262144
-1 -1 12700 1;
#X obj 109 1237 s output;
#X obj 109 1214 four_params;
#X obj 566 493 s OSC_OFFSET;
#X obj 566 471 64;
#X obj 566 450 loadbang;
#X obj 567 283 s OSC_MOD_OFFSET;
#X msg 575 49 50 127;
#X msg 653 52 60 127;
#X msg 730 46 40 127;
#X obj 180 888 hsl 128 15 0 127 0 0 empty empty empty -2 -8 0 10 -262144
-1 -1 2000 1;
#X text 339 886 osc detune;
#X obj 557 884 hsl 128 15 0 127 0 0 empty empty empty -2 -8 0 10 -262144
-1 -1 11800 1;
#X obj 557 744 hsl 128 15 0 127 0 0 empty empty empty -2 -8 0 10 -262144
-1 -1 10700 1;
#X text 723 742 frequency;
#X text 723 882 resonance;
#X obj 413 1075 vradio 15 1 0 3 empty empty empty 0 -8 0 10 -262144
-1 -1 0;
#X obj 431 1169 r ADSR_OFFSET;
#X obj 413 1149 * 4;
#X text 433 1075 adsr 0;
#X text 433 1089 adsr 1;
#X text 433 1104 adsr 2;
#X obj 674 1192 + 0;
#X obj 674 1076 vradio 15 1 0 3 empty empty empty 0 -8 0 10 -262144
-1 -1 0;
#X obj 692 1170 r LFO_OFFSET;
#X text 694 1076 lfo 0;
#X text 694 1090 lfo 1;
#X text 694 1105 lfo 2;
#X obj 674 1150 * 2;
#X obj 183 1191 + 0;
#X obj 183 1075 vradio 15 1 0 3 empty empty empty 0 -8 0 10 -262144
-1 -1 1;
#X obj 201 1169 r OSC_OFFSET;
#X obj 183 1149 * 4;
#X text 203 1075 osc 0;
#X text 203 1089 osc 1;
#X text 203 1104 osc 2;
#X obj 83 1850 cnv 15 800 20 empty empty empty 20 12 0 14 -233017 -66577
0;
#X obj 336 711 + 0;
#X obj 336 615 vradio 15 1 0 3 empty empty empty 0 -8 0 10 -262144
-1 -1 2;
#X text 356 615 osc 0;
#X text 356 629 osc 1;
#X text 356 644 osc 2;
#X obj 354 689 r OSC_MOD_OFFSET;
#X obj 567 262 96;
#X obj 336 669 * 8;
#X obj 54 549 pack 0 0;
#X obj 54 589 noteout;
#X msg 124 589 144 \$1 \$2;
#X obj 214 559 r output;
#X obj 336 570 loadbang;
#X obj 336 590 0;
#X obj 413 1030 loadbang;
#X obj 413 1050 0;
#X obj 183 1030 loadbang;
#X obj 183 1050 0;
#X obj 674 1030 loadbang;
#X obj 674 1050 0;
#X floatatom 234 493 0 0 0 0 - - -;
#X floatatom 301 493 0 0 0 0 - - -;
#X obj 234 520 ctlout;
#X obj 234 470 unpack 0 0;
#X obj 234 431 r output;
#X obj 139 633 comport 0 115200;
#X obj 273 623 print;
#X msg 214 589 176 \$2 \$1;
#X obj 54 549 pack 0 0;
#X text 242 726 detune;
#X obj 518 1253 print;
#X connect 0 0 2 0;
#X connect 0 0 19 0;
#X connect 1 0 107 0;
#X connect 2 0 0 1;
#X connect 3 0 4 0;
#X connect 3 1 5 0;
#X connect 3 2 6 0;
#X connect 3 3 7 0;
#X connect 3 4 8 0;
#X connect 3 5 9 0;
#X connect 3 6 10 0;
#X connect 3 7 11 0;
#X connect 3 8 12 0;
#X connect 3 9 13 0;
#X connect 3 10 14 0;
#X connect 3 11 15 0;
#X connect 3 12 16 0;
#X connect 3 13 17 0;
#X connect 3 14 18 0;
#X connect 3 15 20 0;
#X connect 19 0 3 0;
#X connect 19 0 180 0;
#X connect 21 0 19 1;
#X connect 22 0 25 0;
#X connect 23 0 118 1;
#X connect 24 0 120 0;
#X connect 25 0 107 1;
#X connect 26 0 27 0;
#X connect 27 0 1 0;
#X connect 28 0 30 0;
#X connect 31 0 28 0;
#X connect 32 0 122 0;
#X connect 33 0 122 1;
#X connect 34 0 122 2;
#X connect 35 0 122 3;
#X connect 45 0 109 0;
#X connect 47 0 50 0;
#X connect 48 0 45 0;
#X connect 50 0 108 0;
#X connect 51 0 58 0;
#X connect 53 0 51 0;
#X connect 55 0 59 0;
#X connect 56 0 55 0;
#X connect 58 0 42 0;
#X connect 59 0 54 0;
#X connect 60 0 65 0;
#X connect 65 0 184 0;
#X connect 67 0 111 0;
#X connect 69 0 67 0;
#X connect 71 0 110 0;
#X connect 73 0 71 0;
#X connect 74 0 75 0;
#X connect 75 0 81 0;
#X connect 75 1 82 0;
#X connect 77 0 78 0;
#X connect 78 0 83 0;
#X connect 78 1 84 0;
#X connect 81 0 112 0;
#X connect 82 0 112 0;
#X connect 83 0 112 0;
#X connect 84 0 112 0;
#X connect 87 0 114 0;
#X connect 88 0 113 0;
#X connect 89 0 88 0;
#X connect 90 0 87 0;
#X connect 91 0 87 1;
#X connect 91 0 88 1;
#X connect 92 0 90 0;
#X connect 93 0 91 0;
#X connect 94 0 89 0;
#X connect 95 0 96 0;
#X connect 98 0 99 0;
#X connect 99 0 95 0;
#X connect 100 0 74 0;
#X connect 101 0 77 0;
#X connect 103 0 102 0;
#X connect 105 0 104 0;
#X connect 107 0 0 0;
#X connect 108 0 41 0;
#X connect 109 0 44 0;
#X connect 110 0 70 0;
#X connect 111 0 66 0;
#X connect 112 0 76 0;
#X connect 113 0 85 0;
#X connect 114 0 86 0;
#X connect 115 0 199 0;
#X connect 115 0 200 0;
#X connect 115 0 201 0;
#X connect 116 0 105 0;
#X connect 116 0 103 0;
#X connect 116 0 117 0;
#X connect 117 0 106 0;
#X connect 118 0 237 0;
#X connect 118 1 237 1;
#X connect 119 0 118 2;
#X connect 120 0 118 0;
#X connect 121 0 120 1;
#X connect 122 0 40 0;
#X connect 123 0 122 4;
#X connect 126 0 125 0;
#X connect 127 0 140 0;
#X connect 128 0 126 1;
#X connect 129 0 126 2;
#X connect 130 0 126 4;
#X connect 131 0 126 5;
#X connect 132 0 126 6;
#X connect 133 0 126 3;
#X connect 140 0 126 0;
#X connect 142 0 141 0;
#X connect 143 0 142 1;
#X connect 144 0 142 2;
#X connect 145 0 142 4;
#X connect 146 0 142 5;
#X connect 147 0 142 6;
#X connect 148 0 142 3;
#X connect 155 0 142 8;
#X connect 156 0 161 0;
#X connect 157 0 156 0;
#X connect 158 0 235 0;
#X connect 159 0 160 0;
#X connect 160 0 124 0;
#X connect 162 0 121 0;
#X connect 163 0 162 0;
#X connect 164 0 180 1;
#X connect 165 0 180 2;
#X connect 166 0 180 3;
#X connect 167 0 180 4;
#X connect 168 0 180 5;
#X connect 169 0 180 6;
#X connect 170 0 180 7;
#X connect 171 0 180 8;
#X connect 172 0 180 9;
#X connect 173 0 180 10;
#X connect 174 0 180 11;
#X connect 175 0 180 12;
#X connect 176 0 180 13;
#X connect 177 0 180 14;
#X connect 178 0 180 16;
#X connect 179 0 180 15;
#X connect 180 0 24 0;
#X connect 182 0 184 1;
#X connect 184 0 183 0;
#X connect 184 0 259 0;
#X connect 185 0 186 0;
#X connect 186 0 187 0;
#X connect 189 0 194 0;
#X connect 190 0 194 1;
#X connect 191 0 194 2;
#X connect 192 0 194 3;
#X connect 194 0 193 0;
#X connect 196 0 195 0;
#X connect 197 0 196 0;
#X connect 199 0 102 0;
#X connect 200 0 104 0;
#X connect 201 0 106 0;
#X connect 202 0 126 7;
#X connect 204 0 142 7;
#X connect 205 0 142 0;
#X connect 208 0 210 0;
#X connect 209 0 123 1;
#X connect 210 0 123 0;
#X connect 214 0 184 2;
#X connect 215 0 220 0;
#X connect 216 0 214 1;
#X connect 220 0 214 0;
#X connect 221 0 194 4;
#X connect 222 0 224 0;
#X connect 223 0 221 1;
#X connect 224 0 221 0;
#X connect 229 0 126 8;
#X connect 230 0 236 0;
#X connect 234 0 229 1;
#X connect 235 0 198 0;
#X connect 236 0 229 0;
#X connect 237 0 238 0;
#X connect 237 0 239 0;
#X connect 240 0 256 0;
#X connect 240 0 255 0;
#X connect 241 0 242 0;
#X connect 242 0 230 0;
#X connect 243 0 244 0;
#X connect 244 0 208 0;
#X connect 245 0 246 0;
#X connect 246 0 222 0;
#X connect 247 0 248 0;
#X connect 248 0 215 0;
#X connect 249 0 251 0;
#X connect 250 0 251 1;
#X connect 252 0 249 0;
#X connect 252 1 250 0;
#X connect 253 0 252 0;
