#N canvas 3200 66 1680 984 10;
#X obj 151 133 i;
#X obj 149 73 tgl 15 0 empty empty empty 17 7 0 10 -262144 -1 -1 0
1;
#X obj 176 133 + 1;
#X obj 151 173 sel 0 1 2 3 4 5 6 7 8 9 10 11 12 13 14 15, f 46;
#X obj 151 193 bng 15 250 50 0 empty empty empty 17 7 0 10 -262144
-1 -1;
#X obj 171 193 bng 15 250 50 0 empty empty empty 17 7 0 10 -262144
-1 -1;
#X obj 191 193 bng 15 250 50 0 empty empty empty 17 7 0 10 -262144
-1 -1;
#X obj 211 193 bng 15 250 50 0 empty empty empty 17 7 0 10 -262144
-1 -1;
#X obj 231 193 bng 15 250 50 0 empty empty empty 17 7 0 10 -262144
-1 -1;
#X obj 251 193 bng 15 250 50 0 empty empty empty 17 7 0 10 -262144
-1 -1;
#X obj 271 193 bng 15 250 50 0 empty empty empty 17 7 0 10 -262144
-1 -1;
#X obj 291 193 bng 15 250 50 0 empty empty empty 17 7 0 10 -262144
-1 -1;
#X obj 311 193 bng 15 250 50 0 empty empty empty 17 7 0 10 -262144
-1 -1;
#X obj 331 193 bng 15 250 50 0 empty empty empty 17 7 0 10 -262144
-1 -1;
#X obj 351 193 bng 15 250 50 0 empty empty empty 17 7 0 10 -262144
-1 -1;
#X obj 371 193 bng 15 250 50 0 empty empty empty 17 7 0 10 -262144
-1 -1;
#X obj 391 193 bng 15 250 50 0 empty empty empty 17 7 0 10 -262144
-1 -1;
#X obj 411 193 bng 15 250 50 0 empty empty empty 17 7 0 10 -262144
-1 -1;
#X obj 431 193 bng 15 250 50 0 empty empty empty 17 7 0 10 -262144
-1 -1;
#X obj 151 153 % 16;
#X obj 451 193 bng 15 250 50 0 empty empty empty 17 7 0 10 -262144
-1 -1;
#X floatatom 215 139 5 1 16 0 - - -, f 5;
#X floatatom 210 73 5 0 0 0 - - -, f 5;
#X obj 205 491 vsl 15 30 0 127 0 1 empty empty empty 0 -9 0 10 -262144
-1 -1 2900 1;
#X obj 151 408 nbx 4 14 -1e+37 1e+37 0 0 empty empty empty 0 -8 0 10
-262144 -1 -1 1 256;
#X obj 210 91 expr 60000 / $f1;
#X obj 147 30 key;
#X obj 148 51 sel 32;
#X floatatom 748 2578 5 0 127 0 - - -, f 5;
#X text 790 2576 currentProgram;
#X msg 748 2596 send ProgramChange 0 0 \$1;
#X obj 749 2544 hradio 15 1 0 8 empty empty empty 0 -8 0 10 -262144
-1 -1 0;
#X obj 1073 602 vsl 15 128 0 127 0 0 empty empty empty 0 -9 0 10 -262144
-1 -1 0 1;
#X obj 1091 602 vsl 15 128 0 127 0 0 empty empty empty 0 -9 0 10 -262144
-1 -1 0 1;
#X obj 1110 602 vsl 15 128 0 127 0 0 empty empty empty 0 -9 0 10 -262144
-1 -1 0 1;
#X obj 1128 602 vsl 15 128 0 127 0 0 empty empty empty 0 -9 0 10 -262144
-1 -1 0 1;
#X text 1073 579 a;
#X text 1091 579 d;
#X text 1110 579 s;
#X text 1128 579 r;
#X obj 1073 762 s output;
#X obj 132 1129 s output;
#X obj 693 546 vsl 15 128 0 127 0 0 empty empty empty 0 -9 0 10 -262144
-1 -1 0 1;
#X obj 723 503 vsl 15 128 0 127 0 0 empty empty empty 0 -9 0 10 -262144
-1 -1 0 1;
#X obj 726 476 r fFreq;
#X obj 668 511 r fRes;
#X obj 602 1628 s output;
#X obj 404 1916 s output;
#X obj 407 1871 hsl 128 15 0 127 0 0 empty empty empty -2 -8 0 10 -262144
-1 -1 0 1;
#X text 451 1851 lfo1 speed;
#X text 211 1060 Attack Ratio;
#X obj 632 1129 s output;
#X obj 635 1085 hsl 128 15 0 127 0 0 empty empty empty -2 -8 0 10 -262144
-1 -1 0 1;
#X text 731 1056 Decay/Release Ratio;
#X obj 132 1061 r envARate;
#X obj 632 1060 r envDRRate;
#X obj 99 1156 cnv 15 800 20 empty empty empty 20 12 0 14 -233017 -66577
0;
#X obj 135 1085 hsl 128 15 0 127 0 0 empty empty empty -2 -8 0 10 -262144
-1 -1 0 1;
#X obj 605 1586 hsl 128 15 0 127 0 0 empty empty empty -2 -8 0 10 -262144
-1 -1 0 1;
#X text 669 1627 osc2 volume;
#X obj 602 1562 r o2v;
#X obj 602 1718 s output;
#X obj 605 1676 hsl 128 15 0 127 0 0 empty empty empty -2 -8 0 10 -262144
-1 -1 0 1;
#X obj 602 1652 r o2d;
#X text 669 1717 osc2 detune;
#X obj 477 1574 vsl 15 128 0 127 0 0 empty empty empty 0 -9 0 10 -262144
-1 -1 0 1;
#X obj 499 1574 vsl 15 128 0 127 0 0 empty empty empty 0 -9 0 10 -262144
-1 -1 0 1;
#X obj 521 1574 vsl 15 128 0 127 0 0 empty empty empty 0 -9 0 10 -262144
-1 -1 0 1;
#X obj 544 1574 vsl 15 128 0 127 0 0 empty empty empty 0 -9 0 10 -262144
-1 -1 0 1;
#N canvas 403 525 450 300 (subpatch) 0;
#X obj 41 62 inlet;
#X obj 111 62 inlet;
#X obj 181 62 inlet;
#X obj 251 62 inlet;
#X obj 41 182 outlet;
#X obj 41 95 pack 0 26;
#X obj 111 95 pack 0 27;
#X obj 181 95 pack 0 28;
#X obj 251 95 pack 0 29;
#X msg 41 139 \$2 \$1;
#X connect 0 0 5 0;
#X connect 1 0 6 0;
#X connect 2 0 7 0;
#X connect 3 0 8 0;
#X connect 5 0 9 0;
#X connect 6 0 9 0;
#X connect 7 0 9 0;
#X connect 8 0 9 0;
#X connect 9 0 4 0;
#X restore 477 1715 pd;
#X obj 477 1740 s output;
#X text 461 1549 sin;
#X text 492 1548 saw;
#X text 521 1548 sqr;
#X text 553 1548 rnd;
#X obj 489 1527 r o2sw;
#X obj 164 1575 vsl 15 128 0 127 0 0 empty empty empty 0 -9 0 10 -262144
-1 -1 0 1;
#X obj 186 1575 vsl 15 128 0 127 0 0 empty empty empty 0 -9 0 10 -262144
-1 -1 0 1;
#X obj 208 1575 vsl 15 128 0 127 0 0 empty empty empty 0 -9 0 10 -262144
-1 -1 0 1;
#X obj 231 1575 vsl 15 128 0 127 0 0 empty empty empty 0 -9 0 10 -262144
-1 -1 0 1;
#N canvas 2289 457 450 300 (subpatch) 0;
#X obj 41 62 inlet;
#X obj 111 62 inlet;
#X obj 181 62 inlet;
#X obj 251 62 inlet;
#X obj 41 182 outlet;
#X obj 41 95 pack 0 16;
#X obj 111 95 pack 0 17;
#X obj 181 95 pack 0 18;
#X obj 251 94 pack 0 19;
#X msg 41 139 \$2 \$1;
#X connect 0 0 5 0;
#X connect 1 0 6 0;
#X connect 2 0 7 0;
#X connect 3 0 8 0;
#X connect 5 0 9 0;
#X connect 6 0 9 0;
#X connect 7 0 9 0;
#X connect 8 0 9 0;
#X connect 9 0 4 0;
#X restore 164 1716 pd;
#X obj 164 1741 s output;
#X text 148 1550 sin;
#X text 179 1549 saw;
#X text 208 1549 sqr;
#X text 240 1549 rnd;
#X obj 123 1529 r o1si;
#X obj 227 1529 r o1sq;
#X obj 280 1530 r o1rn;
#X obj 436 1528 r o2si;
#X obj 540 1528 r o2sq;
#X obj 594 1527 r o2rn;
#X obj 176 1528 r o1sw;
#X msg 602 1607 send ControlChange 0 0 24 \$1;
#X msg 602 1697 send ControlChange 0 0 25 \$1;
#X obj 116 1785 cnv 15 200 20 empty empty empty 20 12 0 14 -233017
-66577 0;
#X text 187 1503 OSC 1;
#X obj 396 1785 cnv 15 500 20 empty empty empty 20 12 0 14 -233017
-66577 0;
#X text 435 1504 OSC 2;
#X obj 147 1985 s output;
#X obj 147 1875 vradio 15 1 0 4 empty empty empty 0 -8 0 10 -262144
-1 -1 1;
#X text 167 1875 sin;
#X text 167 1889 saw;
#X text 167 1904 sq;
#X text 167 1919 rnd;
#X obj 147 1942 * 32;
#X obj 147 1851 r l1s;
#X obj 118 2010 cnv 15 800 20 empty empty empty 20 12 0 14 -233017
-66577 0;
#X text 142 1823 LFO PITCH;
#X obj 405 1849 r l1r;
#X obj 634 1272 s output;
#X obj 637 1228 hsl 128 15 0 127 0 0 empty empty empty -2 -8 0 10 -262144
-1 -1 0 1;
#X text 703 1203 pitch glide amt;
#X obj 635 1205 r pGlide;
#X obj 157 1267 s output;
#X obj 160 1223 hsl 128 15 0 127 0 0 empty empty empty -2 -8 0 10 -262144
-1 -1 0 1;
#X text 226 1198 pitch amt;
#X obj 158 1200 r pAmt;
#X obj 707 1916 s output;
#X obj 710 1871 hsl 128 15 0 127 0 0 empty empty empty -2 -8 0 10 -262144
-1 -1 0 1;
#X obj 707 1848 r ple;
#X text 759 1847 pitch lfo1 amt;
#X obj 412 2129 s output;
#X obj 415 2084 hsl 128 15 0 127 0 0 empty empty empty -2 -8 0 10 -262144
-1 -1 0 1;
#X obj 155 2198 s output;
#X obj 155 2088 vradio 15 1 0 4 empty empty empty 0 -8 0 10 -262144
-1 -1 0;
#X text 175 2088 sin;
#X text 175 2102 saw;
#X text 175 2117 sq;
#X text 175 2132 rnd;
#X obj 155 2155 * 32;
#X obj 126 2223 cnv 15 800 20 empty empty empty 20 12 0 14 -233017
-66577 0;
#X text 150 2036 LFO FILTER;
#X text 459 2064 lfo2 speed;
#X obj 413 2062 r l2r;
#X obj 155 2064 r l2s;
#X obj 1040 1843 tgl 15 0 empty empty empty 17 7 0 10 -262144 -1 -1
0 1;
#X obj 1040 1865 sel 0 1;
#X obj 1044 1946 s output;
#X obj 1130 1843 tgl 15 0 empty empty empty 17 7 0 10 -262144 -1 -1
0 1;
#X obj 1130 1865 sel 0 1;
#X obj 412 2349 s output;
#X obj 415 2304 hsl 128 15 0 127 0 0 empty empty empty -2 -8 0 10 -262144
-1 -1 0 1;
#X obj 155 2418 s output;
#X obj 155 2308 vradio 15 1 0 4 empty empty empty 0 -8 0 10 -262144
-1 -1 0;
#X text 175 2308 sin;
#X text 175 2322 saw;
#X text 175 2337 sq;
#X text 175 2352 rnd;
#X obj 155 2375 * 32;
#X text 459 2284 lfo2 speed;
#X text 150 2256 LFO AMP;
#X obj 155 2284 r l3s;
#X obj 413 2282 r l3r;
#X obj 99 1446 cnv 15 800 20 empty empty empty 20 12 0 14 -233017 -66577
0;
#X obj 126 2473 cnv 15 800 20 empty empty empty 20 12 0 14 -233017
-66577 0;
#X text 1035 1738 global lfo sync;
#X obj 707 2146 s output;
#X obj 710 2101 hsl 128 15 0 127 0 0 empty empty empty -2 -8 0 10 -262144
-1 -1 0 1;
#X text 779 2077 filter lfo2 amt;
#X obj 707 2078 r fLFOamt;
#X obj 1041 1891 1;
#X obj 1081 1891 17;
#X obj 1131 1891 33;
#X obj 1171 1891 49;
#X obj 560 2687 s output;
#X obj 524 2734 s output;
#X obj 524 2643 i;
#X obj 562 2642 i;
#X obj 624 2615 bng 15 250 50 0 empty empty empty 17 7 0 10 -262144
-1 -1;
#X obj 515 2586 bng 15 250 50 0 empty empty empty 17 7 0 10 -262144
-1 -1;
#X floatatom 542 2621 5 0 0 0 - - -, f 5;
#X obj 514 2544 r preseLoad;
#X obj 543 2570 r presetNumber;
#X obj 624 2592 r preseSave;
#X obj 162 1369 hsl 100 15 0 127 0 0 empty empty empty -2 -8 0 10 -262144
-1 -1 0 1;
#X obj 158 1391 s pAmt;
#X text 204 1347 Pitch Amt;
#X obj 159 1326 bendin;
#X obj 158 1347 / 128;
#X obj 1041 1813 r l1sync;
#X obj 1131 1813 r l1sync;
#X obj 151 565 noteout;
#X obj 620 144 noteout;
#X msg 630 106 50 0;
#X obj 699 146 noteout;
#X msg 709 108 60 0;
#X obj 776 140 noteout;
#X msg 618 81 50 80;
#X msg 697 83 60 80;
#X msg 723 659 \$1 96;
#X floatatom 658 279 0 0 0 0 - - -;
#X floatatom 725 279 0 0 0 0 - - -;
#X obj 658 306 ctlout;
#X obj 658 256 unpack 0 0;
#X obj 693 716 s output;
#X msg 693 693 \$1 97;
#X obj 658 232 r output;
#X obj 150 113 metro 180;
#X msg 132 1108 13 \$1;
#X msg 632 1108 14 \$1;
#X msg 157 1246 67 \$1;
#X msg 634 1251 66 \$1;
#X msg 147 1964 58 \$1;
#X msg 404 1895 57 \$1;
#X msg 708 1895 64 \$1;
#X msg 1043 1916 56 \$1;
#X msg 155 2177 60 \$1;
#X msg 412 2108 59 \$1;
#X msg 708 2125 99 \$1;
#X msg 412 2328 61 \$1;
#X msg 155 2397 62 \$1;
#X msg 561 2666 126 \$1;
#X msg 523 2711 125 \$1;
#X obj 591 61 bng 15 250 50 0 empty empty empty 17 7 0 10 -262144 -1
-1;
#X obj 588 86 bng 15 250 50 0 empty empty empty 17 7 0 10 -262144 -1
-1;
#X msg 774 77 40 80;
#X obj 424 1065 r output;
#X obj 424 1095 print;
#X msg 786 102 40 0;
#X obj 151 530 makenote 60 20 20;
#X obj 271 491 vsl 15 30 50 500 0 1 empty empty empty 0 -9 0 10 -262144
-1 -1 1600 1;
#X obj 151 462 +;
#X obj 206 448 nbx 4 14 -1e+37 1e+37 0 0 empty empty empty 0 -8 0 10
-262144 -1 -1 36 256;
#X obj 1073 739 four_params;
#X obj 1147 716 + 0;
#X obj 914 303 s ADSR_OFFSET;
#X obj 1147 695 r ADSR_OFFSET;
#X obj 1160 241 s output;
#X obj 1160 218 eight_params, f 26;
#X obj 1069 201 r OSC_OFFSET;
#X obj 914 372 s OSC_OFFSET;
#X obj 1160 58 hradio 15 1 0 5 empty empty empty 0 -8 0 10 -262144
-1 -1 2;
#X obj 1185 98 hsl 128 15 0 127 0 0 empty empty empty -2 -8 0 10 -262144
-1 -1 0 1;
#X obj 1185 118 hsl 128 15 0 127 0 0 empty empty empty -2 -8 0 10 -262144
-1 -1 0 1;
#X obj 1185 158 hsl 128 15 0 127 0 0 empty empty empty -2 -8 0 10 -262144
-1 -1 0 1;
#X obj 1185 178 hsl 128 15 0 127 0 0 empty empty empty -2 -8 0 10 -262144
-1 -1 0 1;
#X obj 1185 198 hsl 128 15 0 127 0 0 empty empty empty -2 -8 0 10 -262144
-1 -1 0 1;
#X obj 1185 138 hsl 128 15 0 127 0 0 empty empty empty -2 -8 0 10 -262144
-1 -1 0 1;
#X text 1323 116 adsr 1 amount;
#X text 1323 96 adsr 0 amount;
#X text 1323 136 adsr 2 amount;
#X text 1330 156 lfo 0 amount;
#X text 1330 178 lfo 1 amount;
#X text 1330 196 lfo 2 amount;
#X text 1373 56 octave;
#X obj 1160 77 * 26;
#X obj 1160 481 s output;
#X obj 1160 458 eight_params, f 26;
#X obj 1160 298 hradio 15 1 0 5 empty empty empty 0 -8 0 10 -262144
-1 -1 2;
#X obj 1185 338 hsl 128 15 0 127 0 0 empty empty empty -2 -8 0 10 -262144
-1 -1 0 1;
#X obj 1185 358 hsl 128 15 0 127 0 0 empty empty empty -2 -8 0 10 -262144
-1 -1 0 1;
#X obj 1185 398 hsl 128 15 0 127 0 0 empty empty empty -2 -8 0 10 -262144
-1 -1 0 1;
#X obj 1185 418 hsl 128 15 0 127 0 0 empty empty empty -2 -8 0 10 -262144
-1 -1 0 1;
#X obj 1185 438 hsl 128 15 0 127 0 0 empty empty empty -2 -8 0 10 -262144
-1 -1 0 1;
#X obj 1185 378 hsl 128 15 0 127 0 0 empty empty empty -2 -8 0 10 -262144
-1 -1 0 1;
#X text 1323 356 adsr 1 amount;
#X text 1323 336 adsr 0 amount;
#X text 1323 376 adsr 2 amount;
#X text 1330 396 lfo 0 amount;
#X text 1330 418 lfo 1 amount;
#X text 1330 436 lfo 2 amount;
#X text 1373 296 octave;
#X obj 1160 317 * 26;
#X obj 1069 441 r FLT_OFFSET;
#X obj 914 351 16;
#X obj 914 420 32;
#X obj 914 399 loadbang;
#X obj 914 330 loadbang;
#X obj 914 261 loadbang;
#X obj 914 282 0;
#X obj 914 441 s FLT_OFFSET;
#X obj 206 428 36;
#X obj 206 408 loadbang;
#X obj 170 217 vsl 15 128 0 12 0 0 empty empty empty 0 -9 0 10 -262144
-1 -1 4300 1;
#X obj 190 217 vsl 15 128 0 12 0 0 empty empty empty 0 -9 0 10 -262144
-1 -1 7100 1;
#X obj 210 217 vsl 15 128 0 12 0 0 empty empty empty 0 -9 0 10 -262144
-1 -1 8000 1;
#X obj 230 217 vsl 15 128 0 12 0 0 empty empty empty 0 -9 0 10 -262144
-1 -1 1500 1;
#X obj 250 217 vsl 15 128 0 12 0 0 empty empty empty 0 -9 0 10 -262144
-1 -1 3500 1;
#X obj 270 217 vsl 15 128 0 12 0 0 empty empty empty 0 -9 0 10 -262144
-1 -1 6800 1;
#X obj 290 217 vsl 15 128 0 12 0 0 empty empty empty 0 -9 0 10 -262144
-1 -1 4700 1;
#X obj 310 217 vsl 15 127 0 12 0 0 empty empty empty 0 -9 0 10 -262144
-1 -1 7100 1;
#X obj 330 217 vsl 15 128 0 12 0 0 empty empty empty 0 -9 0 10 -262144
-1 -1 8100 1;
#X obj 350 217 vsl 15 128 0 12 0 0 empty empty empty 0 -9 0 10 -262144
-1 -1 5600 1;
#X obj 370 217 vsl 15 128 0 12 0 0 empty empty empty 0 -9 0 10 -262144
-1 -1 7100 1;
#X obj 390 217 vsl 15 128 0 12 0 0 empty empty empty 0 -9 0 10 -262144
-1 -1 8300 1;
#X obj 410 217 vsl 15 128 0 12 0 0 empty empty empty 0 -9 0 10 -262144
-1 -1 4700 1;
#X obj 430 217 vsl 15 128 0 12 0 0 empty empty empty 0 -9 0 10 -262144
-1 -1 2500 1;
#X obj 470 217 vsl 15 128 0 12 0 0 empty empty empty 0 -9 0 10 -262144
-1 -1 0 1;
#X obj 450 217 vsl 15 128 0 12 0 0 empty empty empty 0 -9 0 10 -262144
-1 -1 0 1;
#X obj 151 360 seq, f 46;
#X obj 1253 602 vsl 15 128 0 127 0 0 empty empty empty 0 -9 0 10 -262144
-1 -1 0 1;
#X obj 1271 602 vsl 15 128 0 127 0 0 empty empty empty 0 -9 0 10 -262144
-1 -1 0 1;
#X obj 1290 602 vsl 15 128 0 127 0 0 empty empty empty 0 -9 0 10 -262144
-1 -1 0 1;
#X obj 1308 602 vsl 15 128 0 127 0 0 empty empty empty 0 -9 0 10 -262144
-1 -1 0 1;
#X text 1253 579 a;
#X text 1271 579 d;
#X text 1290 579 s;
#X text 1308 579 r;
#X obj 1253 762 s output;
#X obj 1253 739 four_params;
#X obj 1327 695 r ADSR_OFFSET;
#X obj 1433 602 vsl 15 128 0 127 0 0 empty empty empty 0 -9 0 10 -262144
-1 -1 0 1;
#X obj 1451 602 vsl 15 128 0 127 0 0 empty empty empty 0 -9 0 10 -262144
-1 -1 0 1;
#X obj 1470 602 vsl 15 128 0 127 0 0 empty empty empty 0 -9 0 10 -262144
-1 -1 0 1;
#X obj 1488 602 vsl 15 128 0 127 0 0 empty empty empty 0 -9 0 10 -262144
-1 -1 0 1;
#X text 1433 579 a;
#X text 1451 579 d;
#X text 1470 579 s;
#X text 1488 579 r;
#X obj 1433 762 s output;
#X obj 1433 739 four_params;
#X obj 1507 695 r ADSR_OFFSET;
#X obj 1327 716 + 4;
#X obj 1507 716 + 8;
#X text 1157 26 osc1;
#X connect 0 0 2 0;
#X connect 0 0 19 0;
#X connect 1 0 198 0;
#X connect 2 0 0 1;
#X connect 3 0 4 0;
#X connect 3 1 5 0;
#X connect 3 2 6 0;
#X connect 3 3 7 0;
#X connect 3 4 8 0;
#X connect 3 5 9 0;
#X connect 3 6 10 0;
#X connect 3 7 11 0;
#X connect 3 8 12 0;
#X connect 3 9 13 0;
#X connect 3 10 14 0;
#X connect 3 11 15 0;
#X connect 3 12 16 0;
#X connect 3 13 17 0;
#X connect 3 14 18 0;
#X connect 3 15 20 0;
#X connect 19 0 3 0;
#X connect 19 0 290 0;
#X connect 21 0 19 1;
#X connect 22 0 25 0;
#X connect 23 0 220 1;
#X connect 24 0 222 0;
#X connect 25 0 198 1;
#X connect 26 0 27 0;
#X connect 27 0 1 0;
#X connect 28 0 30 0;
#X connect 31 0 28 0;
#X connect 32 0 224 0;
#X connect 33 0 224 1;
#X connect 34 0 224 2;
#X connect 35 0 224 3;
#X connect 42 0 196 0;
#X connect 43 0 190 0;
#X connect 44 0 43 0;
#X connect 45 0 42 0;
#X connect 48 0 204 0;
#X connect 52 0 200 0;
#X connect 54 0 57 0;
#X connect 55 0 52 0;
#X connect 57 0 199 0;
#X connect 58 0 93 0;
#X connect 60 0 58 0;
#X connect 62 0 94 0;
#X connect 63 0 62 0;
#X connect 65 0 69 0;
#X connect 66 0 69 1;
#X connect 67 0 69 2;
#X connect 68 0 69 3;
#X connect 69 0 70 0;
#X connect 75 0 66 0;
#X connect 76 0 80 0;
#X connect 77 0 80 1;
#X connect 78 0 80 2;
#X connect 79 0 80 3;
#X connect 80 0 81 0;
#X connect 86 0 76 0;
#X connect 87 0 78 0;
#X connect 88 0 79 0;
#X connect 89 0 65 0;
#X connect 90 0 67 0;
#X connect 91 0 68 0;
#X connect 92 0 77 0;
#X connect 93 0 46 0;
#X connect 94 0 61 0;
#X connect 100 0 105 0;
#X connect 105 0 203 0;
#X connect 106 0 100 0;
#X connect 109 0 48 0;
#X connect 111 0 202 0;
#X connect 113 0 111 0;
#X connect 115 0 201 0;
#X connect 117 0 115 0;
#X connect 119 0 205 0;
#X connect 120 0 119 0;
#X connect 123 0 208 0;
#X connect 125 0 130 0;
#X connect 130 0 207 0;
#X connect 134 0 123 0;
#X connect 135 0 125 0;
#X connect 136 0 137 0;
#X connect 137 0 161 0;
#X connect 137 1 162 0;
#X connect 139 0 140 0;
#X connect 140 0 163 0;
#X connect 140 1 164 0;
#X connect 142 0 210 0;
#X connect 144 0 149 0;
#X connect 149 0 211 0;
#X connect 152 0 144 0;
#X connect 153 0 142 0;
#X connect 158 0 209 0;
#X connect 160 0 158 0;
#X connect 161 0 206 0;
#X connect 162 0 206 0;
#X connect 163 0 206 0;
#X connect 164 0 206 0;
#X connect 167 0 213 0;
#X connect 168 0 212 0;
#X connect 169 0 168 0;
#X connect 170 0 167 0;
#X connect 171 0 167 1;
#X connect 171 0 168 1;
#X connect 172 0 170 0;
#X connect 173 0 171 0;
#X connect 174 0 169 0;
#X connect 175 0 176 0;
#X connect 178 0 179 0;
#X connect 179 0 175 0;
#X connect 180 0 136 0;
#X connect 181 0 139 0;
#X connect 184 0 183 0;
#X connect 186 0 185 0;
#X connect 188 0 183 0;
#X connect 189 0 185 0;
#X connect 190 0 195 0;
#X connect 191 0 193 0;
#X connect 192 0 193 1;
#X connect 194 0 191 0;
#X connect 194 1 192 0;
#X connect 196 0 195 0;
#X connect 197 0 194 0;
#X connect 198 0 0 0;
#X connect 199 0 41 0;
#X connect 200 0 51 0;
#X connect 201 0 114 0;
#X connect 202 0 110 0;
#X connect 203 0 99 0;
#X connect 204 0 47 0;
#X connect 205 0 118 0;
#X connect 206 0 138 0;
#X connect 207 0 124 0;
#X connect 208 0 122 0;
#X connect 209 0 157 0;
#X connect 210 0 141 0;
#X connect 211 0 143 0;
#X connect 212 0 165 0;
#X connect 213 0 166 0;
#X connect 214 0 188 0;
#X connect 214 0 189 0;
#X connect 214 0 216 0;
#X connect 215 0 186 0;
#X connect 215 0 184 0;
#X connect 215 0 219 0;
#X connect 216 0 187 0;
#X connect 217 0 218 0;
#X connect 219 0 187 0;
#X connect 220 0 182 0;
#X connect 220 1 182 1;
#X connect 221 0 220 2;
#X connect 222 0 220 0;
#X connect 223 0 222 1;
#X connect 224 0 40 0;
#X connect 225 0 224 4;
#X connect 227 0 225 0;
#X connect 229 0 228 0;
#X connect 230 0 229 8;
#X connect 232 0 246 0;
#X connect 233 0 229 1;
#X connect 234 0 229 2;
#X connect 235 0 229 4;
#X connect 236 0 229 5;
#X connect 237 0 229 6;
#X connect 238 0 229 3;
#X connect 246 0 229 0;
#X connect 248 0 247 0;
#X connect 249 0 263 0;
#X connect 250 0 248 1;
#X connect 251 0 248 2;
#X connect 252 0 248 4;
#X connect 253 0 248 5;
#X connect 254 0 248 6;
#X connect 255 0 248 3;
#X connect 263 0 248 0;
#X connect 264 0 248 8;
#X connect 265 0 231 0;
#X connect 266 0 271 0;
#X connect 267 0 266 0;
#X connect 268 0 265 0;
#X connect 269 0 270 0;
#X connect 270 0 226 0;
#X connect 272 0 223 0;
#X connect 273 0 272 0;
#X connect 274 0 290 1;
#X connect 275 0 290 2;
#X connect 276 0 290 3;
#X connect 277 0 290 4;
#X connect 278 0 290 5;
#X connect 279 0 290 6;
#X connect 280 0 290 7;
#X connect 281 0 290 8;
#X connect 282 0 290 9;
#X connect 283 0 290 10;
#X connect 284 0 290 11;
#X connect 285 0 290 12;
#X connect 286 0 290 13;
#X connect 287 0 290 14;
#X connect 288 0 290 16;
#X connect 289 0 290 15;
#X connect 290 0 24 0;
#X connect 291 0 300 0;
#X connect 292 0 300 1;
#X connect 293 0 300 2;
#X connect 294 0 300 3;
#X connect 300 0 299 0;
#X connect 301 0 313 0;
#X connect 302 0 311 0;
#X connect 303 0 311 1;
#X connect 304 0 311 2;
#X connect 305 0 311 3;
#X connect 311 0 310 0;
#X connect 312 0 314 0;
#X connect 313 0 300 4;
#X connect 314 0 311 4;
