#N canvas 437 181 1389 817 10;
#X obj 31 112 i;
#X obj 30 74 tgl 15 0 empty empty empty 17 7 0 10 -262144 -1 -1 1 1
;
#X obj 56 112 + 1;
#X obj 50 152 sel 0 1 2 3 4 5 6 7 8 9 10 11 12 13 14 15, f 46;
#X obj 50 172 bng 15 250 50 0 empty empty empty 17 7 0 10 -262144 -1
-1;
#X obj 70 172 bng 15 250 50 0 empty empty empty 17 7 0 10 -262144 -1
-1;
#X obj 90 172 bng 15 250 50 0 empty empty empty 17 7 0 10 -262144 -1
-1;
#X obj 110 172 bng 15 250 50 0 empty empty empty 17 7 0 10 -262144
-1 -1;
#X obj 130 172 bng 15 250 50 0 empty empty empty 17 7 0 10 -262144
-1 -1;
#X obj 150 172 bng 15 250 50 0 empty empty empty 17 7 0 10 -262144
-1 -1;
#X obj 170 172 bng 15 250 50 0 empty empty empty 17 7 0 10 -262144
-1 -1;
#X obj 190 172 bng 15 250 50 0 empty empty empty 17 7 0 10 -262144
-1 -1;
#X obj 210 172 bng 15 250 50 0 empty empty empty 17 7 0 10 -262144
-1 -1;
#X obj 230 172 bng 15 250 50 0 empty empty empty 17 7 0 10 -262144
-1 -1;
#X obj 250 172 bng 15 250 50 0 empty empty empty 17 7 0 10 -262144
-1 -1;
#X obj 270 172 bng 15 250 50 0 empty empty empty 17 7 0 10 -262144
-1 -1;
#X obj 290 172 bng 15 250 50 0 empty empty empty 17 7 0 10 -262144
-1 -1;
#X obj 310 172 bng 15 250 50 0 empty empty empty 17 7 0 10 -262144
-1 -1;
#X obj 330 172 bng 15 250 50 0 empty empty empty 17 7 0 10 -262144
-1 -1;
#X obj 31 132 % 16;
#X obj 350 172 bng 15 250 50 0 empty empty empty 17 7 0 10 -262144
-1 -1;
#X floatatom 90 52 5 0 0 0 - - -;
#X obj 85 448 vsl 15 30 0 127 0 1 empty empty empty 0 -9 0 10 -262144
-1 -1 2900 1;
#X obj 31 365 nbx 4 14 -1e+37 1e+37 0 0 empty empty empty 0 -8 0 10
-262144 -1 -1 5 256;
#X obj 90 70 expr 60000 / $f1;
#X obj 28 31 key;
#X obj 29 52 sel 32;
#X floatatom 99 2322 5 0 127 0 - - -;
#X text 141 2320 currentProgram;
#X msg 99 2340 send ProgramChange 0 0 \$1;
#X obj 100 2288 hradio 15 1 0 8 empty empty empty 0 -8 0 10 -262144
-1 -1 6;
#X obj 129 1248 vsl 15 128 0 127 0 0 empty empty empty 0 -9 0 10 -262144
-1 -1 100 1;
#X obj 147 1248 vsl 15 128 0 127 0 0 empty empty empty 0 -9 0 10 -262144
-1 -1 8100 1;
#X obj 166 1248 vsl 15 128 0 127 0 0 empty empty empty 0 -9 0 10 -262144
-1 -1 4300 1;
#X obj 184 1248 vsl 15 128 0 127 0 0 empty empty empty 0 -9 0 10 -262144
-1 -1 2100 1;
#X text 129 1225 a;
#X text 147 1225 d;
#X text 166 1225 s;
#X text 184 1225 r;
#X obj 130 1410 s output;
#X obj 53 2396 cnv 15 800 20 empty empty empty 20 12 0 14 -233017 -66577
0;
#X obj 102 2146 vradio 15 1 0 4 empty empty empty 0 -8 0 10 -262144
-1 -1 0;
#X text 122 2146 sin;
#X text 122 2160 saw;
#X text 122 2175 sq;
#X text 122 2190 rnd;
#X obj 103 1439 cnv 15 800 20 empty empty empty 20 12 0 14 -233017
-66577 0;
#X msg 730 298 50 0;
#X msg 795 304 60 0;
#X obj 733 254 bng 15 250 50 0 empty empty empty 17 7 0 10 -262144
-1 -1;
#X obj 789 253 bng 15 250 50 0 empty empty empty 17 7 0 10 -262144
-1 -1;
#X obj 151 448 vsl 15 30 0 300 0 1 empty empty empty 0 -9 0 10 -262144
-1 -1 2382 1;
#X obj 31 419 +;
#X obj 86 405 nbx 4 14 -1e+37 1e+37 0 0 empty empty empty 0 -8 0 10
-262144 -1 -1 36 256;
#X obj 222 1316 + 0;
#X obj 444 82 s ADSR_OFFSET;
#X obj 148 1934 s output;
#X obj 151 1786 hsl 128 15 0 127 0 0 empty empty empty -2 -8 0 10 -262144
-1 -1 0 1;
#X obj 151 1806 hsl 128 15 0 127 0 0 empty empty empty -2 -8 0 10 -262144
-1 -1 0 1;
#X obj 151 1846 hsl 128 15 0 127 0 0 empty empty empty -2 -8 0 10 -262144
-1 -1 0 1;
#X obj 151 1866 hsl 128 15 0 127 0 0 empty empty empty -2 -8 0 10 -262144
-1 -1 0 1;
#X obj 151 1886 hsl 128 15 0 127 0 0 empty empty empty -2 -8 0 10 -262144
-1 -1 0 1;
#X obj 151 1826 hsl 128 15 0 127 0 0 empty empty empty -2 -8 0 10 -262144
-1 -1 0 1;
#X text 289 1804 adsr 1 amount;
#X text 289 1784 adsr 0 amount;
#X text 289 1824 adsr 2 amount;
#X text 296 1844 lfo 0 amount;
#X text 296 1866 lfo 1 amount;
#X text 296 1884 lfo 2 amount;
#X obj 144 775 s output;
#X obj 59 738 r FLT_OFFSET;
#X obj 550 41 loadbang;
#X obj 746 43 loadbang;
#X obj 444 40 loadbang;
#X obj 550 83 s FLT_OFFSET;
#X obj 86 385 36;
#X obj 86 365 loadbang;
#X obj 50 196 vsl 15 128 0 12 0 0 empty empty empty 0 -9 0 10 -262144
-1 -1 5300 1;
#X obj 70 196 vsl 15 128 0 12 0 0 empty empty empty 0 -9 0 10 -262144
-1 -1 6800 1;
#X obj 90 196 vsl 15 128 0 12 0 0 empty empty empty 0 -9 0 10 -262144
-1 -1 7700 1;
#X obj 110 196 vsl 15 128 0 12 0 0 empty empty empty 0 -9 0 10 -262144
-1 -1 7900 1;
#X obj 130 196 vsl 15 128 0 12 0 0 empty empty empty 0 -9 0 10 -262144
-1 -1 6300 1;
#X obj 150 196 vsl 15 128 0 12 0 0 empty empty empty 0 -9 0 10 -262144
-1 -1 7200 1;
#X obj 170 196 vsl 15 128 0 12 0 0 empty empty empty 0 -9 0 10 -262144
-1 -1 7700 1;
#X obj 190 196 vsl 15 127 0 12 0 0 empty empty empty 0 -9 0 10 -262144
-1 -1 6100 1;
#X obj 210 196 vsl 15 128 0 12 0 0 empty empty empty 0 -9 0 10 -262144
-1 -1 6000 1;
#X obj 230 196 vsl 15 128 0 12 0 0 empty empty empty 0 -9 0 10 -262144
-1 -1 6700 1;
#X obj 250 196 vsl 15 128 0 12 0 0 empty empty empty 0 -9 0 10 -262144
-1 -1 0 1;
#X obj 270 196 vsl 15 128 0 12 0 0 empty empty empty 0 -9 0 10 -262144
-1 -1 0 1;
#X obj 290 196 vsl 15 128 0 12 0 0 empty empty empty 0 -9 0 10 -262144
-1 -1 0 1;
#X obj 310 196 vsl 15 128 0 12 0 0 empty empty empty 0 -9 0 10 -262144
-1 -1 0 1;
#X obj 350 196 vsl 15 128 0 12 0 0 empty empty empty 0 -9 0 10 -262144
-1 -1 0 1;
#X obj 330 196 vsl 15 128 0 12 0 0 empty empty empty 0 -9 0 10 -262144
-1 -1 0 1;
#X obj 31 339 seq, f 46;
#X obj 80 2079 vsl 15 128 0 127 0 0 empty empty empty 0 -9 0 10 -262144
-1 -1 0 1;
#X obj 82 2242 s output;
#X obj 647 37 loadbang;
#X obj 646 84 s LFO_OFFSET;
#X text 304 693 filter;
#X obj 341 82 s OSC_OFFSET;
#X obj 341 39 loadbang;
#X obj 746 85 s OSC_MOD_OFFSET;
#X msg 730 281 50 127;
#X msg 787 278 60 127;
#X obj 148 715 hsl 128 15 0 127 0 0 empty empty empty -2 -8 0 10 -262144
-1 -1 3600 1;
#X text 284 713 frequency;
#X obj 240 1292 r ADSR_OFFSET;
#X obj 195 2193 + 0;
#X obj 195 2077 vradio 15 1 0 3 empty empty empty 0 -8 0 10 -262144
-1 -1 0;
#X obj 213 2171 r LFO_OFFSET;
#X text 215 2077 lfo 0;
#X text 215 2091 lfo 1;
#X text 215 2106 lfo 2;
#X obj 52 2006 cnv 15 800 20 empty empty empty 20 12 0 14 -233017 -66577
0;
#X obj 228 1721 + 0;
#X obj 228 1571 vradio 15 1 0 5 empty empty empty 0 -8 0 10 -262144
-1 -1 0;
#X obj 246 1699 r OSC_MOD_OFFSET;
#X obj 31 522 pack 0 0;
#X obj 228 1526 loadbang;
#X obj 228 1546 0;
#X obj 222 1229 loadbang;
#X obj 222 1249 0;
#X obj 195 2031 loadbang;
#X obj 195 2051 0;
#X obj 31 522 pack 0 0;
#X obj 148 1911 six_params, f 35;
#X obj 228 1679 * 6;
#X obj 228 1752 + 0;
#X obj 118 1571 vradio 20 1 0 3 empty empty empty 0 -8 0 10 -262144
-1 -1 0;
#X obj 118 1524 loadbang;
#X obj 118 1546 0;
#X text 138 1570 osc 0;
#X text 138 1592 osc 1;
#X text 138 1612 osc 2;
#X obj 118 1662 t b i i;
#X text 248 1571 freq;
#X text 248 1585 sin level;
#X text 248 1600 saw level;
#X text 248 1615 sqr level;
#X text 248 1630 rnd level;
#X obj 746 64 96;
#X obj 144 754 two_params, f 26;
#X obj 148 735 hsl 128 15 0 127 0 0 empty empty empty -2 -8 0 10 -262144
-1 -1 6900 1;
#X text 284 733 resonance;
#X obj 737 340 send notes;
#X obj 647 58 36;
#X obj 19 558 send notes;
#X obj 368 776 s output;
#X obj 371 628 hsl 128 15 0 127 0 0 empty empty empty -2 -8 0 10 -262144
-1 -1 3700 1;
#X obj 371 648 hsl 128 15 0 127 0 0 empty empty empty -2 -8 0 10 -262144
-1 -1 0 1;
#X obj 371 688 hsl 128 15 0 127 0 0 empty empty empty -2 -8 0 10 -262144
-1 -1 0 1;
#X obj 371 708 hsl 128 15 0 127 0 0 empty empty empty -2 -8 0 10 -262144
-1 -1 0 1;
#X obj 371 728 hsl 128 15 0 127 0 0 empty empty empty -2 -8 0 10 -262144
-1 -1 0 1;
#X obj 371 668 hsl 128 15 0 127 0 0 empty empty empty -2 -8 0 10 -262144
-1 -1 0 1;
#X text 509 646 adsr 1 amount;
#X text 509 626 adsr 0 amount;
#X text 509 666 adsr 2 amount;
#X text 516 686 lfo 0 amount;
#X text 516 708 lfo 1 amount;
#X text 516 726 lfo 2 amount;
#X obj 368 753 six_params, f 35;
#X obj 141 1735 * 30;
#X obj 876 43 loadbang;
#X obj 876 64 186;
#X obj 876 85 s FLT_MOD_OFFSET;
#X obj 609 732 r FLT_MOD_OFFSET;
#X obj 30 92 metro 500;
#X msg 459 433 144 \$1 \$2;
#X obj 361 409 r output;
#X msg 361 433 176 \$2 \$1;
#X obj 458 412 receive notes;
#X msg 549 434 devicename /dev/ttyACM1;
#X msg 844 287 80 127;
#X msg 844 304 80 0;
#X obj 31 487 makenote 60 50;
#X obj 144 112 / 4;
#X obj 341 60 0;
#X obj 550 62 33;
#X obj 444 61 18;
#X obj 222 1272 * 5;
#X obj 129 1385 five_params, f 16;
#X obj 203 1364 tgl 15 0 empty empty empty 17 7 0 10 -262144 -1 -1
0 1;
#X text 201 1344 loop;
#X text 155 915 OSC 1;
#X text 355 913 OSC 2;
#X text 558 912 OSC 3;
#X obj 335 1248 vsl 15 128 0 127 0 0 empty empty empty 0 -9 0 10 -262144
-1 -1 0 1;
#X obj 353 1248 vsl 15 128 0 127 0 0 empty empty empty 0 -9 0 10 -262144
-1 -1 0 1;
#X obj 372 1248 vsl 15 128 0 127 0 0 empty empty empty 0 -9 0 10 -262144
-1 -1 0 1;
#X obj 390 1248 vsl 15 128 0 127 0 0 empty empty empty 0 -9 0 10 -262144
-1 -1 0 1;
#X text 335 1225 a;
#X text 353 1225 d;
#X text 372 1225 s;
#X text 390 1225 r;
#X obj 336 1410 s output;
#X obj 428 1316 + 0;
#X obj 446 1292 r ADSR_OFFSET;
#X obj 428 1229 loadbang;
#X obj 428 1272 * 5;
#X obj 335 1385 five_params, f 16;
#X obj 409 1364 tgl 15 0 empty empty empty 17 7 0 10 -262144 -1 -1
0 1;
#X text 407 1344 loop;
#X obj 541 1248 vsl 15 128 0 127 0 0 empty empty empty 0 -9 0 10 -262144
-1 -1 0 1;
#X obj 559 1248 vsl 15 128 0 127 0 0 empty empty empty 0 -9 0 10 -262144
-1 -1 0 1;
#X obj 578 1248 vsl 15 128 0 127 0 0 empty empty empty 0 -9 0 10 -262144
-1 -1 7900 1;
#X obj 596 1248 vsl 15 128 0 127 0 0 empty empty empty 0 -9 0 10 -262144
-1 -1 0 1;
#X text 541 1225 a;
#X text 559 1225 d;
#X text 578 1225 s;
#X text 596 1225 r;
#X obj 542 1410 s output;
#X obj 634 1316 + 0;
#X obj 652 1292 r ADSR_OFFSET;
#X obj 634 1229 loadbang;
#X obj 634 1272 * 5;
#X obj 541 1385 five_params, f 16;
#X obj 615 1364 tgl 15 0 empty empty empty 17 7 0 10 -262144 -1 -1
0 1;
#X text 613 1344 loop;
#X obj 428 1249 1;
#X obj 634 1249 2;
#X obj 223 1054 + 0;
#X obj 241 1032 r OSC_OFFSET;
#X obj 130 1130 s output;
#X obj 223 1012 * 5;
#X obj 223 969 loadbang;
#X obj 223 989 0;
#X obj 130 970 vsl 15 128 0 127 0 0 empty empty empty 0 -9 0 10 -262144
-1 -1 0 1;
#X obj 148 970 vsl 15 128 0 127 0 0 empty empty empty 0 -9 0 10 -262144
-1 -1 0 1;
#X obj 167 970 vsl 15 128 0 127 0 0 empty empty empty 0 -9 0 10 -262144
-1 -1 0 1;
#X obj 185 970 vsl 15 128 0 127 0 0 empty empty empty 0 -9 0 10 -262144
-1 -1 12700 1;
#X obj 204 970 vsl 15 128 0 127 0 0 empty empty empty 0 -9 0 10 -262144
-1 -1 0 1;
#X text 143 935 sin;
#X text 163 951 saw;
#X text 181 935 sqr;
#X text 200 951 rnd;
#X text 126 951 det;
#X obj 130 1107 five_params, f 16;
#X obj 423 1054 + 0;
#X obj 441 1032 r OSC_OFFSET;
#X obj 330 1130 s output;
#X obj 423 1012 * 5;
#X obj 423 969 loadbang;
#X obj 330 970 vsl 15 128 0 127 0 0 empty empty empty 0 -9 0 10 -262144
-1 -1 500 1;
#X obj 348 970 vsl 15 128 0 127 0 0 empty empty empty 0 -9 0 10 -262144
-1 -1 0 1;
#X obj 367 970 vsl 15 128 0 127 0 0 empty empty empty 0 -9 0 10 -262144
-1 -1 0 1;
#X obj 385 970 vsl 15 128 0 127 0 0 empty empty empty 0 -9 0 10 -262144
-1 -1 12700 1;
#X obj 404 970 vsl 15 128 0 127 0 0 empty empty empty 0 -9 0 10 -262144
-1 -1 0 1;
#X text 343 935 sin;
#X text 363 951 saw;
#X text 381 935 sqr;
#X text 400 951 rnd;
#X text 326 951 det;
#X obj 330 1107 five_params, f 16;
#X obj 623 1054 + 0;
#X obj 641 1032 r OSC_OFFSET;
#X obj 530 1130 s output;
#X obj 623 1012 * 5;
#X obj 623 969 loadbang;
#X obj 530 970 vsl 15 128 0 127 0 0 empty empty empty 0 -9 0 10 -262144
-1 -1 1200 1;
#X obj 548 970 vsl 15 128 0 127 0 0 empty empty empty 0 -9 0 10 -262144
-1 -1 0 1;
#X obj 567 970 vsl 15 128 0 127 0 0 empty empty empty 0 -9 0 10 -262144
-1 -1 0 1;
#X obj 585 970 vsl 15 128 0 127 0 0 empty empty empty 0 -9 0 10 -262144
-1 -1 12700 1;
#X obj 604 970 vsl 15 128 0 127 0 0 empty empty empty 0 -9 0 10 -262144
-1 -1 0 1;
#X text 543 935 sin;
#X text 563 951 saw;
#X text 581 935 sqr;
#X text 600 951 rnd;
#X text 526 951 det;
#X obj 530 1107 five_params, f 16;
#X obj 423 989 1;
#X obj 623 989 2;
#X obj 361 452 comport 1 115200;
#X obj 195 2151 * 3;
#X obj 82 2219 four_params;
#X obj 153 2189 tgl 15 0 empty empty empty 17 7 0 10 -262144 -1 -1
0 1;
#X text 151 2169 sync;
#X obj 565 175 vsl 15 128 0 127 0 0 empty empty empty 0 -9 0 10 -262144
-1 -1 12700 1;
#X obj 566 337 s output;
#X obj 621 264 loadbang;
#X obj 565 312 pack 0 0, f 10;
#X obj 621 284 95;
#X connect 0 0 2 0;
#X connect 0 0 19 0;
#X connect 1 0 166 0;
#X connect 2 0 0 1;
#X connect 3 0 4 0;
#X connect 3 1 5 0;
#X connect 3 2 6 0;
#X connect 3 3 7 0;
#X connect 3 4 8 0;
#X connect 3 5 9 0;
#X connect 3 6 10 0;
#X connect 3 7 11 0;
#X connect 3 8 12 0;
#X connect 3 9 13 0;
#X connect 3 10 14 0;
#X connect 3 11 15 0;
#X connect 3 12 16 0;
#X connect 3 13 17 0;
#X connect 3 14 18 0;
#X connect 3 15 20 0;
#X connect 19 0 3 0;
#X connect 19 0 93 0;
#X connect 21 0 24 0;
#X connect 22 0 174 1;
#X connect 23 0 52 0;
#X connect 24 0 166 1;
#X connect 24 0 175 0;
#X connect 25 0 26 0;
#X connect 26 0 1 0;
#X connect 27 0 29 0;
#X connect 30 0 27 0;
#X connect 31 0 180 0;
#X connect 32 0 180 1;
#X connect 33 0 180 2;
#X connect 34 0 180 3;
#X connect 41 0 273 1;
#X connect 47 0 144 0;
#X connect 48 0 144 0;
#X connect 49 0 102 0;
#X connect 49 0 103 0;
#X connect 49 0 172 0;
#X connect 50 0 48 0;
#X connect 50 0 47 0;
#X connect 50 0 173 0;
#X connect 51 0 174 2;
#X connect 52 0 174 0;
#X connect 53 0 52 1;
#X connect 54 0 180 5;
#X connect 57 0 125 0;
#X connect 58 0 125 1;
#X connect 59 0 125 3;
#X connect 60 0 125 4;
#X connect 61 0 125 5;
#X connect 62 0 125 2;
#X connect 70 0 141 2;
#X connect 71 0 177 0;
#X connect 72 0 140 0;
#X connect 73 0 178 0;
#X connect 75 0 53 0;
#X connect 76 0 75 0;
#X connect 77 0 93 1;
#X connect 78 0 93 2;
#X connect 79 0 93 3;
#X connect 80 0 93 4;
#X connect 81 0 93 5;
#X connect 82 0 93 6;
#X connect 83 0 93 7;
#X connect 84 0 93 8;
#X connect 85 0 93 9;
#X connect 86 0 93 10;
#X connect 87 0 93 11;
#X connect 88 0 93 12;
#X connect 89 0 93 13;
#X connect 90 0 93 14;
#X connect 91 0 93 16;
#X connect 92 0 93 15;
#X connect 93 0 23 0;
#X connect 94 0 273 0;
#X connect 96 0 145 0;
#X connect 100 0 176 0;
#X connect 102 0 144 0;
#X connect 103 0 144 0;
#X connect 104 0 141 0;
#X connect 106 0 54 1;
#X connect 107 0 273 4;
#X connect 108 0 272 0;
#X connect 109 0 107 1;
#X connect 114 0 127 0;
#X connect 115 0 126 0;
#X connect 116 0 114 1;
#X connect 117 0 146 0;
#X connect 118 0 119 0;
#X connect 119 0 115 0;
#X connect 120 0 121 0;
#X connect 121 0 179 0;
#X connect 122 0 123 0;
#X connect 123 0 108 0;
#X connect 125 0 56 0;
#X connect 126 0 114 0;
#X connect 127 0 125 6;
#X connect 128 0 134 0;
#X connect 129 0 130 0;
#X connect 130 0 128 0;
#X connect 134 0 126 0;
#X connect 134 1 161 0;
#X connect 140 0 101 0;
#X connect 141 0 69 0;
#X connect 142 0 141 1;
#X connect 145 0 97 0;
#X connect 148 0 160 0;
#X connect 149 0 160 1;
#X connect 150 0 160 3;
#X connect 151 0 160 4;
#X connect 152 0 160 5;
#X connect 153 0 160 2;
#X connect 160 0 147 0;
#X connect 161 0 127 1;
#X connect 162 0 163 0;
#X connect 163 0 164 0;
#X connect 165 0 160 6;
#X connect 166 0 0 0;
#X connect 167 0 271 0;
#X connect 168 0 169 0;
#X connect 169 0 271 0;
#X connect 170 0 167 0;
#X connect 171 0 271 0;
#X connect 172 0 144 0;
#X connect 173 0 144 0;
#X connect 174 0 117 0;
#X connect 174 1 117 1;
#X connect 175 0 51 0;
#X connect 176 0 99 0;
#X connect 177 0 74 0;
#X connect 178 0 55 0;
#X connect 179 0 54 0;
#X connect 180 0 39 0;
#X connect 181 0 180 4;
#X connect 186 0 199 0;
#X connect 187 0 199 1;
#X connect 188 0 199 2;
#X connect 189 0 199 3;
#X connect 195 0 199 5;
#X connect 196 0 195 1;
#X connect 197 0 218 0;
#X connect 198 0 195 0;
#X connect 199 0 194 0;
#X connect 200 0 199 4;
#X connect 202 0 215 0;
#X connect 203 0 215 1;
#X connect 204 0 215 2;
#X connect 205 0 215 3;
#X connect 211 0 215 5;
#X connect 212 0 211 1;
#X connect 213 0 219 0;
#X connect 214 0 211 0;
#X connect 215 0 210 0;
#X connect 216 0 215 4;
#X connect 218 0 198 0;
#X connect 219 0 214 0;
#X connect 220 0 236 5;
#X connect 221 0 220 1;
#X connect 223 0 220 0;
#X connect 224 0 225 0;
#X connect 225 0 223 0;
#X connect 226 0 236 0;
#X connect 227 0 236 1;
#X connect 228 0 236 2;
#X connect 229 0 236 3;
#X connect 230 0 236 4;
#X connect 236 0 222 0;
#X connect 237 0 252 5;
#X connect 238 0 237 1;
#X connect 240 0 237 0;
#X connect 241 0 269 0;
#X connect 242 0 252 0;
#X connect 243 0 252 1;
#X connect 244 0 252 2;
#X connect 245 0 252 3;
#X connect 246 0 252 4;
#X connect 252 0 239 0;
#X connect 253 0 268 5;
#X connect 254 0 253 1;
#X connect 256 0 253 0;
#X connect 257 0 270 0;
#X connect 258 0 268 0;
#X connect 259 0 268 1;
#X connect 260 0 268 2;
#X connect 261 0 268 3;
#X connect 262 0 268 4;
#X connect 268 0 255 0;
#X connect 269 0 240 0;
#X connect 270 0 256 0;
#X connect 272 0 107 0;
#X connect 273 0 95 0;
#X connect 274 0 273 2;
#X connect 276 0 279 0;
#X connect 278 0 280 0;
#X connect 279 0 277 0;
#X connect 280 0 279 1;
