#N canvas 2265 570 450 225 10;
#X obj 21 103 sel 0 1 2 3 4 5 6 7 8 9 10 11 12 13 14 15, f 46;
#X obj 21 123 bng 15 250 50 0 empty empty empty 17 7 0 10 -262144 -1
-1;
#X obj 40 123 bng 15 250 50 0 empty empty empty 17 7 0 10 -262144 -1
-1;
#X obj 60 123 bng 15 250 50 0 empty empty empty 17 7 0 10 -262144 -1
-1;
#X obj 80 123 bng 15 250 50 0 empty empty empty 17 7 0 10 -262144 -1
-1;
#X obj 100 123 bng 15 250 50 0 empty empty empty 17 7 0 10 -262144
-1 -1;
#X obj 120 123 bng 15 250 50 0 empty empty empty 17 7 0 10 -262144
-1 -1;
#X obj 140 123 bng 15 250 50 0 empty empty empty 17 7 0 10 -262144
-1 -1;
#X obj 160 123 bng 15 250 50 0 empty empty empty 17 7 0 10 -262144
-1 -1;
#X obj 180 123 bng 15 250 50 0 empty empty empty 17 7 0 10 -262144
-1 -1;
#X obj 200 123 bng 15 250 50 0 empty empty empty 17 7 0 10 -262144
-1 -1;
#X obj 220 123 bng 15 250 50 0 empty empty empty 17 7 0 10 -262144
-1 -1;
#X obj 240 123 bng 15 250 50 0 empty empty empty 17 7 0 10 -262144
-1 -1;
#X obj 260 123 bng 15 250 50 0 empty empty empty 17 7 0 10 -262144
-1 -1;
#X obj 280 123 bng 15 250 50 0 empty empty empty 17 7 0 10 -262144
-1 -1;
#X obj 300 123 bng 15 250 50 0 empty empty empty 17 7 0 10 -262144
-1 -1;
#X obj 320 123 bng 15 250 50 0 empty empty empty 17 7 0 10 -262144
-1 -1;
#X obj 21 139 i, f 1;
#X obj 40 141 i, f 1;
#X obj 60 141 i, f 1;
#X obj 80 141 i, f 1;
#X obj 100 141 i, f 1;
#X obj 120 141 i, f 1;
#X obj 140 141 i, f 1;
#X obj 160 141 i, f 1;
#X obj 180 141 i, f 1;
#X obj 200 141 i, f 1;
#X obj 220 141 i, f 1;
#X obj 240 141 i, f 1;
#X obj 260 141 i, f 1;
#X obj 280 141 i, f 1;
#X obj 300 141 i, f 1;
#X obj 320 141 i, f 1;
#X obj 21 158 nbx 4 14 -1e+37 1e+37 0 0 empty empty empty 0 -8 0 10
-262144 -1 -1 0 256;
#X obj 21 29 inlet;
#X obj 24 46 inlet;
#X obj 44 66 inlet;
#X obj 64 46 inlet;
#X obj 104 46 inlet;
#X obj 144 46 inlet;
#X obj 184 46 inlet;
#X obj 224 46 inlet;
#X obj 84 66 inlet;
#X obj 124 66 inlet;
#X obj 164 66 inlet;
#X obj 204 66 inlet;
#X obj 244 66 inlet;
#X obj 264 46 inlet;
#X obj 304 46 inlet;
#X obj 324 66 inlet;
#X obj 284 66 inlet;
#X obj 21 179 outlet;
#X connect 0 0 1 0;
#X connect 0 1 2 0;
#X connect 0 2 3 0;
#X connect 0 3 4 0;
#X connect 0 4 5 0;
#X connect 0 5 6 0;
#X connect 0 6 7 0;
#X connect 0 7 8 0;
#X connect 0 8 9 0;
#X connect 0 9 10 0;
#X connect 0 10 11 0;
#X connect 0 11 12 0;
#X connect 0 12 13 0;
#X connect 0 13 14 0;
#X connect 0 14 15 0;
#X connect 0 15 16 0;
#X connect 1 0 17 0;
#X connect 2 0 18 0;
#X connect 3 0 19 0;
#X connect 4 0 20 0;
#X connect 5 0 21 0;
#X connect 6 0 22 0;
#X connect 7 0 23 0;
#X connect 8 0 24 0;
#X connect 9 0 25 0;
#X connect 10 0 26 0;
#X connect 11 0 27 0;
#X connect 12 0 28 0;
#X connect 13 0 29 0;
#X connect 14 0 30 0;
#X connect 15 0 31 0;
#X connect 16 0 32 0;
#X connect 17 0 33 0;
#X connect 18 0 33 0;
#X connect 19 0 33 0;
#X connect 20 0 33 0;
#X connect 21 0 33 0;
#X connect 22 0 33 0;
#X connect 23 0 33 0;
#X connect 24 0 33 0;
#X connect 25 0 33 0;
#X connect 26 0 33 0;
#X connect 27 0 33 0;
#X connect 28 0 33 0;
#X connect 29 0 33 0;
#X connect 30 0 33 0;
#X connect 31 0 33 0;
#X connect 32 0 33 0;
#X connect 33 0 51 0;
#X connect 34 0 0 0;
#X connect 35 0 17 1;
#X connect 36 0 18 1;
#X connect 37 0 19 1;
#X connect 38 0 21 1;
#X connect 39 0 23 1;
#X connect 40 0 25 1;
#X connect 41 0 27 1;
#X connect 42 0 20 1;
#X connect 43 0 22 1;
#X connect 44 0 24 1;
#X connect 45 0 26 1;
#X connect 46 0 28 1;
#X connect 47 0 29 1;
#X connect 48 0 31 1;
#X connect 49 0 32 1;
#X connect 50 0 30 1;
