#N canvas 2269 355 266 132 10;
#X obj 31 26 inlet;
#X obj 121 26 inlet;
#X obj 31 78 outlet;
#X obj 84 43 + 0;
#X obj 174 44 + 1;
#X obj 31 61 pack 0 0;
#X obj 121 62 pack 0 0;
#X obj 201 28 inlet;
#X connect 0 0 5 0;
#X connect 1 0 6 0;
#X connect 3 0 5 1;
#X connect 4 0 6 1;
#X connect 5 0 2 0;
#X connect 6 0 2 0;
#X connect 7 0 3 0;
#X connect 7 0 4 0;
